<svg width="394" height="131" viewBox="0 0 394 131" fill="none" xmlns="http://www.w3.org/2000/svg">
<circle cx="54.5" cy="72.0476" r="46.5" fill="url(#paint0_radial_103_12)"/>
<circle cx="97.5641" cy="23.1898" r="17.5" transform="rotate(155.444 97.5641 23.1898)" fill="url(#paint1_radial_103_12)"/>
<circle cx="15.75" cy="25.2976" r="12.5" transform="rotate(107.993 15.75 25.2976)" fill="url(#paint2_radial_103_12)"/>
<circle cx="97.9626" cy="113.51" r="12.5" transform="rotate(-118.647 97.9626 113.51)" fill="url(#paint3_radial_103_12)"/>
<path d="M146.08 73.04C146.08 76.48 145.2 79.1 143.44 80.9C141.68 82.66 139.1 83.54 135.7 83.54C132.38 83.54 129.78 82.62 127.9 80.78C126.02 78.94 125.08 76.36 125.08 73.04V62.3C125.08 60.46 124.92 59.14 124.6 58.34C124.28 57.54 123.58 56.68 122.5 55.76L122.92 54.98H133.42L133.84 55.94C132.92 56.42 132.26 56.86 131.86 57.26C131.46 57.62 131.18 58.1 131.02 58.7C130.9 59.3 130.84 60.2 130.84 61.4V73.58C130.84 76.26 131.36 78.3 132.4 79.7C133.44 81.06 134.96 81.74 136.96 81.74C139.24 81.74 141 81.04 142.24 79.64C143.48 78.2 144.1 76.18 144.1 73.58V59.96C144.1 58.72 143.86 57.88 143.38 57.44C142.94 56.96 141.96 56.5 140.44 56.06L140.86 54.98H147.82L148.36 55.64L147.82 56.3C147.14 57.22 146.66 58.16 146.38 59.12C146.14 60.04 146.04 61.28 146.08 62.84V73.04ZM164.347 63.08C165.627 63.08 166.667 63.46 167.467 64.22C168.267 64.94 168.667 65.88 168.667 67.04C168.667 68.12 168.347 69 167.707 69.68C167.067 70.32 166.227 70.64 165.187 70.64C164.387 70.64 163.647 70.48 162.967 70.16C163.687 69.56 164.047 68.66 164.047 67.46C164.047 66.9 163.927 66.46 163.687 66.14C163.447 65.82 163.127 65.66 162.727 65.66C161.767 65.66 160.967 66.64 160.327 68.6C159.687 70.52 159.367 72.92 159.367 75.8C159.367 77.28 159.447 78.46 159.607 79.34C159.807 80.22 160.127 81.04 160.567 81.8L161.047 82.4L160.567 83H151.867L151.507 81.98L152.347 81.8C152.987 81.64 153.407 81.4 153.607 81.08C153.807 80.72 153.907 80.04 153.907 79.04V67.34C153.907 66.58 153.647 66.2 153.127 66.2H151.267L151.027 65.54C151.787 64.86 152.727 64.3 153.847 63.86C155.007 63.42 156.147 63.2 157.267 63.2C157.787 63.2 158.207 63.32 158.527 63.56C158.847 63.8 159.007 64.12 159.007 64.52V68.9H159.187C160.027 65.02 161.747 63.08 164.347 63.08ZM182.67 63.08C184.27 63.08 185.71 63.5 186.99 64.34C188.31 65.14 189.33 66.26 190.05 67.7C190.81 69.14 191.19 70.76 191.19 72.56C191.19 74.64 190.69 76.52 189.69 78.2C188.73 79.84 187.39 81.14 185.67 82.1C183.95 83.06 182.03 83.54 179.91 83.54C178.47 83.54 177.03 83.32 175.59 82.88C174.15 82.44 172.97 81.84 172.05 81.08V57.38C172.05 57.06 171.99 56.84 171.87 56.72C171.75 56.6 171.55 56.54 171.27 56.54H169.41L169.23 55.94C169.99 55.22 170.97 54.66 172.17 54.26C173.41 53.82 174.63 53.6 175.83 53.6C176.35 53.6 176.75 53.72 177.03 53.96C177.35 54.16 177.51 54.46 177.51 54.86V64.94C178.11 64.34 178.85 63.88 179.73 63.56C180.65 63.24 181.63 63.08 182.67 63.08ZM180.21 82.16C183.53 82.16 185.19 79.3 185.19 73.58C185.19 70.74 184.77 68.58 183.93 67.1C183.13 65.58 181.93 64.82 180.33 64.82C179.33 64.82 178.39 65.12 177.51 65.72V81.56C178.39 81.96 179.29 82.16 180.21 82.16ZM200.882 69.74C200.042 70.22 199.042 70.46 197.882 70.46C197.042 70.46 196.382 70.22 195.902 69.74C195.422 69.22 195.182 68.5 195.182 67.58C195.182 66.22 195.842 65.14 197.162 64.34C198.522 63.5 200.282 63.08 202.442 63.08C205.002 63.08 207.002 63.64 208.442 64.76C209.922 65.88 210.662 67.4 210.662 69.32V79.7C210.662 80.82 211.062 81.38 211.862 81.38C212.622 81.38 213.362 81.08 214.082 80.48L214.562 81.08C213.082 82.72 211.322 83.54 209.282 83.54C208.082 83.54 207.162 83.24 206.522 82.64C205.922 82.04 205.562 81.1 205.442 79.82H205.202C204.562 80.98 203.702 81.9 202.622 82.58C201.582 83.22 200.382 83.54 199.022 83.54C197.502 83.54 196.282 83.08 195.362 82.16C194.442 81.2 193.982 79.96 193.982 78.44C193.982 76.72 194.802 75.36 196.442 74.36C198.082 73.36 200.302 72.86 203.102 72.86C203.622 72.86 204.362 72.9 205.322 72.98V69.98C205.322 68.02 205.082 66.62 204.602 65.78C204.122 64.9 203.342 64.46 202.262 64.46C201.502 64.46 200.902 64.7 200.462 65.18C200.022 65.66 199.802 66.28 199.802 67.04C199.802 68.24 200.162 69.14 200.882 69.74ZM201.782 80.54C204.142 80.54 205.322 78.4 205.322 74.12C203.322 74.12 201.822 74.46 200.822 75.14C199.822 75.78 199.322 76.7 199.322 77.9C199.322 78.7 199.542 79.34 199.982 79.82C200.422 80.3 201.022 80.54 201.782 80.54ZM236.776 79.58C236.776 80.78 237.156 81.38 237.916 81.38C238.676 81.38 239.416 81.08 240.136 80.48L240.616 81.08C239.136 82.72 237.396 83.54 235.396 83.54C233.956 83.54 232.916 83.18 232.276 82.46C231.676 81.7 231.376 80.48 231.376 78.8V69.62C231.376 67.3 230.636 66.14 229.156 66.14C227.716 66.14 226.536 67.12 225.616 69.08C224.736 71.04 224.296 73.6 224.296 76.76C224.296 77.96 224.396 78.94 224.596 79.7C224.796 80.42 225.116 81.12 225.556 81.8L226.036 82.4L225.556 83H216.856L216.496 81.98L217.336 81.8C217.976 81.64 218.396 81.4 218.596 81.08C218.796 80.72 218.896 80.04 218.896 79.04V67.34C218.896 66.58 218.636 66.2 218.116 66.2H216.196L216.016 65.54C216.816 64.86 217.816 64.3 219.016 63.86C220.216 63.42 221.416 63.2 222.616 63.2C223.136 63.2 223.536 63.32 223.816 63.56C224.136 63.8 224.296 64.12 224.296 64.52V69.68C224.856 67.8 225.856 66.24 227.296 65C228.736 63.72 230.256 63.08 231.856 63.08C233.576 63.08 234.816 63.64 235.576 64.76C236.376 65.88 236.776 67.66 236.776 70.1V79.58ZM267.46 71L266.98 71.66C266.42 72.38 266.04 73.16 265.84 74C265.68 74.84 265.6 76.12 265.6 77.84V83L265 83.24L261.88 81.62C259.92 82.9 257.72 83.54 255.28 83.54C251.28 83.54 248.1 82.24 245.74 79.64C243.42 77.04 242.26 73.54 242.26 69.14C242.26 64.62 243.52 61.04 246.04 58.4C248.6 55.76 252.04 54.44 256.36 54.44C259.12 54.44 261.36 54.98 263.08 56.06C264.84 57.1 265.72 58.48 265.72 60.2C265.72 61.88 265.02 63.2 263.62 64.16C262.22 65.12 260.46 65.6 258.34 65.6C258.9 64.92 259.34 64.2 259.66 63.44C259.98 62.64 260.14 61.62 260.14 60.38C260.14 59.02 259.74 57.94 258.94 57.14C258.14 56.3 257.14 55.88 255.94 55.88C253.7 55.88 251.9 57.1 250.54 59.54C249.22 61.94 248.56 65.14 248.56 69.14C248.56 71.5 248.9 73.62 249.58 75.5C250.3 77.34 251.28 78.78 252.52 79.82C253.76 80.86 255.18 81.38 256.78 81.38C257.98 81.38 259.14 81.16 260.26 80.72V75.32C260.26 74.4 260.18 73.74 260.02 73.34C259.86 72.9 259.56 72.56 259.12 72.32C258.68 72.04 257.96 71.76 256.96 71.48L257.32 70.34H266.98L267.46 71ZM283.233 63.08C284.513 63.08 285.553 63.46 286.353 64.22C287.153 64.94 287.553 65.88 287.553 67.04C287.553 68.12 287.233 69 286.593 69.68C285.953 70.32 285.113 70.64 284.073 70.64C283.273 70.64 282.533 70.48 281.853 70.16C282.573 69.56 282.933 68.66 282.933 67.46C282.933 66.9 282.813 66.46 282.573 66.14C282.333 65.82 282.013 65.66 281.613 65.66C280.653 65.66 279.853 66.64 279.213 68.6C278.573 70.52 278.253 72.92 278.253 75.8C278.253 77.28 278.333 78.46 278.493 79.34C278.693 80.22 279.013 81.04 279.453 81.8L279.933 82.4L279.453 83H270.753L270.393 81.98L271.233 81.8C271.873 81.64 272.293 81.4 272.493 81.08C272.693 80.72 272.793 80.04 272.793 79.04V67.34C272.793 66.58 272.533 66.2 272.013 66.2H270.153L269.913 65.54C270.673 64.86 271.613 64.3 272.733 63.86C273.893 63.42 275.033 63.2 276.153 63.2C276.673 63.2 277.093 63.32 277.413 63.56C277.733 63.8 277.893 64.12 277.893 64.52V68.9H278.073C278.913 65.02 280.633 63.08 283.233 63.08ZM300.656 81.56C301.816 81.56 302.836 81.36 303.716 80.96C304.596 80.52 305.456 79.8 306.296 78.8L307.016 79.34C306.096 80.66 304.916 81.7 303.476 82.46C302.076 83.18 300.536 83.54 298.856 83.54C297.016 83.54 295.356 83.1 293.876 82.22C292.436 81.34 291.296 80.14 290.456 78.62C289.616 77.06 289.196 75.3 289.196 73.34C289.196 70.22 290.136 67.74 292.016 65.9C293.936 64.02 296.476 63.08 299.636 63.08C301.876 63.08 303.696 63.62 305.096 64.7C306.536 65.74 307.256 67.1 307.256 68.78C307.256 70.7 306.436 72.24 304.796 73.4C303.196 74.52 300.996 75.08 298.196 75.08C297.076 75.08 296.056 75 295.136 74.84C295.336 76.92 295.936 78.56 296.936 79.76C297.936 80.96 299.176 81.56 300.656 81.56ZM298.976 64.52C297.736 64.52 296.756 65.28 296.036 66.8C295.356 68.28 295.016 70.36 295.016 73.04V74C295.456 74 295.996 73.96 296.636 73.88C298.316 73.68 299.596 73.14 300.476 72.26C301.396 71.34 301.856 70.14 301.856 68.66C301.856 67.46 301.576 66.48 301.016 65.72C300.496 64.92 299.816 64.52 298.976 64.52ZM321.34 81.56C322.5 81.56 323.52 81.36 324.4 80.96C325.28 80.52 326.14 79.8 326.98 78.8L327.7 79.34C326.78 80.66 325.6 81.7 324.16 82.46C322.76 83.18 321.22 83.54 319.54 83.54C317.7 83.54 316.04 83.1 314.56 82.22C313.12 81.34 311.98 80.14 311.14 78.62C310.3 77.06 309.88 75.3 309.88 73.34C309.88 70.22 310.82 67.74 312.7 65.9C314.62 64.02 317.16 63.08 320.32 63.08C322.56 63.08 324.38 63.62 325.78 64.7C327.22 65.74 327.94 67.1 327.94 68.78C327.94 70.7 327.12 72.24 325.48 73.4C323.88 74.52 321.68 75.08 318.88 75.08C317.76 75.08 316.74 75 315.82 74.84C316.02 76.92 316.62 78.56 317.62 79.76C318.62 80.96 319.86 81.56 321.34 81.56ZM319.66 64.52C318.42 64.52 317.44 65.28 316.72 66.8C316.04 68.28 315.7 70.36 315.7 73.04V74C316.14 74 316.68 73.96 317.32 73.88C319 73.68 320.28 73.14 321.16 72.26C322.08 71.34 322.54 70.14 322.54 68.66C322.54 67.46 322.26 66.48 321.7 65.72C321.18 64.92 320.5 64.52 319.66 64.52ZM351.444 79.58C351.444 80.78 351.824 81.38 352.584 81.38C353.344 81.38 354.084 81.08 354.804 80.48L355.284 81.08C353.804 82.72 352.064 83.54 350.064 83.54C348.624 83.54 347.584 83.18 346.944 82.46C346.344 81.7 346.044 80.48 346.044 78.8V69.62C346.044 67.3 345.304 66.14 343.824 66.14C342.384 66.14 341.204 67.12 340.284 69.08C339.404 71.04 338.964 73.6 338.964 76.76C338.964 77.96 339.064 78.94 339.264 79.7C339.464 80.42 339.784 81.12 340.224 81.8L340.704 82.4L340.224 83H331.524L331.164 81.98L332.004 81.8C332.644 81.64 333.064 81.4 333.264 81.08C333.464 80.72 333.564 80.04 333.564 79.04V67.34C333.564 66.58 333.304 66.2 332.784 66.2H330.864L330.684 65.54C331.484 64.86 332.484 64.3 333.684 63.86C334.884 63.42 336.084 63.2 337.284 63.2C337.804 63.2 338.204 63.32 338.484 63.56C338.804 63.8 338.964 64.12 338.964 64.52V69.68C339.524 67.8 340.524 66.24 341.964 65C343.404 63.72 344.924 63.08 346.524 63.08C348.244 63.08 349.484 63.64 350.244 64.76C351.044 65.88 351.444 67.66 351.444 70.1V79.58ZM362.988 67.16C362.988 68.16 363.368 68.98 364.128 69.62C364.928 70.22 366.128 70.9 367.728 71.66C369.048 72.3 370.068 72.86 370.788 73.34C371.508 73.78 372.128 74.38 372.648 75.14C373.208 75.9 373.488 76.8 373.488 77.84C373.488 79.56 372.668 80.94 371.028 81.98C369.428 83.02 367.268 83.54 364.548 83.54C362.508 83.54 360.828 83.18 359.508 82.46C358.188 81.7 357.528 80.72 357.528 79.52C357.528 78.72 357.828 78.06 358.428 77.54C359.028 76.98 359.768 76.7 360.648 76.7C361.328 76.7 362.008 76.84 362.688 77.12C362.008 77.64 361.668 78.48 361.668 79.64C361.668 80.44 361.948 81.06 362.508 81.5C363.068 81.94 363.748 82.16 364.548 82.16C365.468 82.16 366.248 81.92 366.888 81.44C367.568 80.96 367.908 80.28 367.908 79.4C367.908 78.56 367.568 77.9 366.888 77.42C366.248 76.9 365.228 76.3 363.828 75.62C362.548 75.02 361.508 74.48 360.708 74C359.948 73.48 359.288 72.8 358.728 71.96C358.168 71.12 357.888 70.1 357.888 68.9C357.888 67.1 358.648 65.68 360.168 64.64C361.688 63.6 363.608 63.08 365.928 63.08C367.968 63.08 369.628 63.46 370.908 64.22C372.228 64.98 372.888 65.96 372.888 67.16C372.888 68.08 372.608 68.76 372.048 69.2C371.488 69.64 370.768 69.86 369.888 69.86C369.048 69.86 368.308 69.68 367.668 69.32C368.388 68.64 368.748 67.78 368.748 66.74C368.748 66.06 368.488 65.52 367.968 65.12C367.448 64.68 366.768 64.46 365.928 64.46C365.008 64.46 364.288 64.72 363.768 65.24C363.248 65.76 362.988 66.4 362.988 67.16Z" fill="black"/>
<path d="M73.0011 76.8466H53.8255L59.4282 71.4597C61.4537 72.4405 63.6856 72.9634 65.9534 72.9885C68.236 72.9943 70.476 72.3937 72.4261 71.253C78.3562 67.8011 81.5338 59.8109 80.9263 49.8785C80.8978 49.408 80.6905 48.964 80.3439 48.6308C79.9973 48.2976 79.5356 48.0983 79.0463 48.0708C68.7159 47.4867 60.4057 50.5419 56.8131 56.2437C54.4755 59.9576 54.4155 64.443 56.5981 68.7434L53.0005 72.2025L49.9479 69.2674C51.4479 66.0824 51.3404 62.7772 49.6004 60.0177C46.8828 55.6933 40.6526 53.388 32.9323 53.8231C32.4439 53.8511 31.983 54.0503 31.637 54.3829C31.291 54.7156 31.0839 55.1587 31.0548 55.6283C30.5998 63.0488 32.9998 69.0391 37.5 71.6544C39.0055 72.5383 40.7361 73.0042 42.5001 73.0005C44.1005 72.9853 45.679 72.6419 47.1303 71.9933L50.1729 74.9236L48.1728 76.8466H37C36.4695 76.8466 35.9608 77.0492 35.5857 77.4098C35.2106 77.7705 34.9999 78.2596 34.9999 78.7696C34.9999 79.2796 35.2106 79.7688 35.5857 80.1294C35.9608 80.4901 36.4695 80.6927 37 80.6927H39.3975L42.7001 94.988C42.8929 95.8446 43.3861 96.6114 44.0972 97.1598C44.8082 97.7082 45.6937 98.0049 46.6053 97.9999H63.3983C64.3096 98.004 65.1946 97.707 65.9055 97.1588C66.6163 96.6105 67.1098 95.8442 67.3034 94.988L70.606 80.6927H73.0011C73.5315 80.6927 74.0403 80.4901 74.4153 80.1294C74.7904 79.7688 75.0011 79.2796 75.0011 78.7696C75.0011 78.2596 74.7904 77.7705 74.4153 77.4098C74.0403 77.0492 73.5315 76.8466 73.0011 76.8466Z" fill="#F8F8F8" fill-opacity="0.49"/>
<defs>
<radialGradient id="paint0_radial_103_12" cx="0" cy="0" r="1" gradientUnits="userSpaceOnUse" gradientTransform="translate(27.5 109.143) rotate(-138.15) scale(89.2741 93.8268)">
<stop offset="0.475301" stop-color="#2F7B25"/>
<stop offset="1" stop-color="#B1EF63"/>
</radialGradient>
<radialGradient id="paint1_radial_103_12" cx="0" cy="0" r="1" gradientUnits="userSpaceOnUse" gradientTransform="translate(87.4028 37.1504) rotate(-138.15) scale(33.5978 35.3111)">
<stop offset="0.475301" stop-color="#2F7B25"/>
<stop offset="1" stop-color="#B1EF63"/>
</radialGradient>
<radialGradient id="paint2_radial_103_12" cx="0" cy="0" r="1" gradientUnits="userSpaceOnUse" gradientTransform="translate(8.49194 35.2695) rotate(-138.15) scale(23.9984 25.2222)">
<stop offset="0.475301" stop-color="#2F7B25"/>
<stop offset="1" stop-color="#B1EF63"/>
</radialGradient>
<radialGradient id="paint3_radial_103_12" cx="0" cy="0" r="1" gradientUnits="userSpaceOnUse" gradientTransform="translate(90.7046 123.482) rotate(-138.15) scale(23.9984 25.2222)">
<stop offset="0.475301" stop-color="#2F7B25"/>
<stop offset="1" stop-color="#B1EF63"/>
</radialGradient>
</defs>
</svg>
