<svg width="1440" height="490" viewBox="0 0 1440 490" fill="none" xmlns="http://www.w3.org/2000/svg">
<g clip-path="url(#clip0_154_8)">
<path d="M0 0L40 8.2C80 16 160 33 240 57.2C320 82 400 114 480 179.7C560 245 640 343 720 351.2C800 359 880 278 960 204.2C1040 131 1120 65 1200 89.8C1280 114 1360 229 1440 261.3C1520 294 1600 245 1680 245C1760 245 1840 294 1920 269.5C2000 245 2080 147 2160 138.8C2240 131 2320 212 2400 212.3C2480 212 2560 131 2640 106.2C2720 82 2800 114 2880 114.3C2960 114 3040 82 3120 57.2C3200 33 3280 16 3360 8.2C3440 0 3520 0 3600 16.3C3680 33 3760 65 3840 122.5C3920 180 4000 261 4080 318.5C4160 376 4240 408 4320 359.3C4400 310 4480 180 4560 179.7C4640 180 4720 310 4800 318.5C4880 327 4960 212 5040 187.8C5120 163 5200 229 5280 261.3C5360 294 5440 294 5520 318.5C5600 343 5680 392 5720 416.5L5760 441V490H5720C5680 490 5600 490 5520 490C5440 490 5360 490 5280 490C5200 490 5120 490 5040 490C4960 490 4880 490 4800 490C4720 490 4640 490 4560 490C4480 490 4400 490 4320 490C4240 490 4160 490 4080 490C4000 490 3920 490 3840 490C3760 490 3680 490 3600 490C3520 490 3440 490 3360 490C3280 490 3200 490 3120 490C3040 490 2960 490 2880 490C2800 490 2720 490 2640 490C2560 490 2480 490 2400 490C2320 490 2240 490 2160 490C2080 490 2000 490 1920 490C1840 490 1760 490 1680 490C1600 490 1520 490 1440 490C1360 490 1280 490 1200 490C1120 490 1040 490 960 490C880 490 800 490 720 490C640 490 560 490 480 490C400 490 320 490 240 490C160 490 80 490 40 490H0V0Z" fill="url(#paint0_linear_154_8)"/>
<path opacity="0.9" d="M0 98L40 138.8C80 180 160 261 240 310.3C320 359 400 376 480 318.5C560 261 640 131 720 65.3C800 0 880 0 960 57.2C1040 114 1120 229 1200 294C1280 359 1360 376 1440 318.5C1520 261 1600 131 1680 81.7C1760 33 1840 65 1920 89.8C2000 114 2080 131 2160 171.5C2240 212 2320 278 2400 285.8C2480 294 2560 245 2640 261.3C2720 278 2800 359 2880 383.8C2960 408 3040 376 3120 334.8C3200 294 3280 245 3360 187.8C3440 131 3520 65 3600 65.3C3680 65 3760 131 3840 138.8C3920 147 4000 98 4080 98C4160 98 4240 147 4320 179.7C4400 212 4480 229 4560 253.2C4640 278 4720 310 4800 318.5C4880 327 4960 310 5040 253.2C5120 196 5200 98 5280 65.3C5360 33 5440 65 5520 89.8C5600 114 5680 131 5720 138.8L5760 147V490H5720C5680 490 5600 490 5520 490C5440 490 5360 490 5280 490C5200 490 5120 490 5040 490C4960 490 4880 490 4800 490C4720 490 4640 490 4560 490C4480 490 4400 490 4320 490C4240 490 4160 490 4080 490C4000 490 3920 490 3840 490C3760 490 3680 490 3600 490C3520 490 3440 490 3360 490C3280 490 3200 490 3120 490C3040 490 2960 490 2880 490C2800 490 2720 490 2640 490C2560 490 2480 490 2400 490C2320 490 2240 490 2160 490C2080 490 2000 490 1920 490C1840 490 1760 490 1680 490C1600 490 1520 490 1440 490C1360 490 1280 490 1200 490C1120 490 1040 490 960 490C880 490 800 490 720 490C640 490 560 490 480 490C400 490 320 490 240 490C160 490 80 490 40 490H0V98Z" fill="url(#paint1_linear_154_8)"/>
</g>
<defs>
<linearGradient id="paint0_linear_154_8" x1="0" y1="490" x2="0" y2="0" gradientUnits="userSpaceOnUse">
<stop stop-color="#538E55"/>
<stop offset="1" stop-color="#D6D3D1"/>
</linearGradient>
<linearGradient id="paint1_linear_154_8" x1="0" y1="490" x2="0" y2="15.2623" gradientUnits="userSpaceOnUse">
<stop stop-color="#1E8A29"/>
<stop offset="1" stop-color="#D6D3D1"/>
</linearGradient>
<clipPath id="clip0_154_8">
<rect width="1440" height="490" fill="white"/>
</clipPath>
</defs>
</svg>
