<svg xmlns="http://www.w3.org/2000/svg" viewBox="0 0 500 500"><g id="freepik--background-complete--inject-24"><rect y="382.4" width="500" height="0.25" style="fill:#ebebeb"></rect><rect x="416.78" y="398.49" width="33.12" height="0.25" style="fill:#ebebeb"></rect><rect x="322.53" y="401.21" width="8.69" height="0.25" style="fill:#ebebeb"></rect><rect x="396.59" y="389.21" width="19.19" height="0.25" style="fill:#ebebeb"></rect><rect x="52.46" y="390.89" width="43.19" height="0.25" style="fill:#ebebeb"></rect><rect x="104.56" y="390.89" width="6.33" height="0.25" style="fill:#ebebeb"></rect><rect x="131.47" y="395.11" width="93.68" height="0.25" style="fill:#ebebeb"></rect><path d="M237,337.8H43.91a5.71,5.71,0,0,1-5.7-5.71V60.66A5.71,5.71,0,0,1,43.91,55H237a5.71,5.71,0,0,1,5.71,5.71V332.09A5.71,5.71,0,0,1,237,337.8ZM43.91,55.2a5.46,5.46,0,0,0-5.45,5.46V332.09a5.46,5.46,0,0,0,5.45,5.46H237a5.47,5.47,0,0,0,5.46-5.46V60.66A5.47,5.47,0,0,0,237,55.2Z" style="fill:#ebebeb"></path><path d="M453.31,337.8H260.21a5.72,5.72,0,0,1-5.71-5.71V60.66A5.72,5.72,0,0,1,260.21,55h193.1A5.71,5.71,0,0,1,459,60.66V332.09A5.71,5.71,0,0,1,453.31,337.8ZM260.21,55.2a5.47,5.47,0,0,0-5.46,5.46V332.09a5.47,5.47,0,0,0,5.46,5.46h193.1a5.47,5.47,0,0,0,5.46-5.46V60.66a5.47,5.47,0,0,0-5.46-5.46Z" style="fill:#ebebeb"></path><polygon points="455.65 288.81 455.65 382.43 451.07 382.43 451.07 294.45 331.42 294.45 331.42 382.43 326.84 382.43 326.84 288.81 455.65 288.81" style="fill:#f0f0f0"></polygon><path d="M429.44,275.8s-2.76-6,.39-11.95,4.07-7.32,2.06-8.54-2.93,4.74-2.93,4.74a13.43,13.43,0,0,1-.3-8.39c1.4-4.29,2.28-11.28.37-12s-.36,8.72-2,12a27.81,27.81,0,0,1-1.62-7c-.23-3.45.13-8.95-1.38-10.36s-2.47-.44-1,7.17a79.76,79.76,0,0,1,1.47,13.79s-3.27-10-5.47-10.27-2.19,2.94-.31,5.74,5.5,7.83,6.1,10.41c0,0-3.6-7.51-6.83-5.21s2.82,6.84,5.51,8.48,4.56,11.91,4.56,11.91Z" style="fill:#f0f0f0"></path><path d="M427.26,278.27s2.69-6.06-.53-11.94-4.15-7.27-2.16-8.51,3,4.7,3,4.7a13.43,13.43,0,0,0,.19-8.4c-1.45-4.27-2.41-11.24-.51-12s.47,8.71,2.16,11.91a27.83,27.83,0,0,0,1.54-7.06c.19-3.45-.24-8.95,1.25-10.38s2.47-.47,1.08,7.16a79.19,79.19,0,0,0-1.3,13.8s3.15-10,5.34-10.34,2.23,2.9.38,5.73-5.41,7.91-6,10.5c0,0,3.5-7.56,6.76-5.31s-2.73,6.88-5.4,8.56-4.42,12-4.42,12Z" style="fill:#f0f0f0"></path><polygon points="439.65 273.95 417.47 273.95 419.26 289.82 437.85 289.82 439.65 273.95" style="fill:#f0f0f0"></polygon><path d="M389.32,275.8s2.76-6-.39-11.95-4.06-7.32-2.05-8.54,2.93,4.74,2.93,4.74a13.39,13.39,0,0,0,.29-8.39c-1.4-4.29-2.27-11.28-.36-12s.36,8.72,2,12a27.81,27.81,0,0,0,1.62-7c.23-3.45-.13-8.95,1.38-10.36s2.47-.44,1,7.17a79.76,79.76,0,0,0-1.47,13.79s3.27-10,5.47-10.27,2.19,2.94.31,5.74-5.51,7.83-6.1,10.41c0,0,3.59-7.51,6.82-5.21s-2.81,6.84-5.5,8.48-4.57,11.91-4.57,11.91Z" style="fill:#f0f0f0"></path><path d="M391.5,278.27s-2.68-6.06.54-11.94,4.15-7.27,2.16-8.51-3,4.7-3,4.7a13.47,13.47,0,0,1-.2-8.4c1.45-4.27,2.41-11.24.51-12s-.46,8.71-2.16,11.91a27.83,27.83,0,0,1-1.54-7.06c-.18-3.45.24-8.95-1.25-10.38s-2.47-.47-1.08,7.16a79.86,79.86,0,0,1,1.31,13.8s-3.15-10-5.35-10.34-2.23,2.9-.38,5.73,5.41,7.91,6,10.5c0,0-3.51-7.56-6.76-5.31s2.73,6.88,5.4,8.56,4.42,12,4.42,12Z" style="fill:#f0f0f0"></path><polygon points="379.12 273.95 401.3 273.95 399.5 289.82 380.91 289.82 379.12 273.95" style="fill:#f0f0f0"></polygon><path d="M354.56,275.8s-2.76-6,.39-11.95,4.07-7.32,2.06-8.54-2.93,4.74-2.93,4.74a13.43,13.43,0,0,1-.3-8.39c1.4-4.29,2.28-11.28.37-12s-.36,8.72-2,12a27.81,27.81,0,0,1-1.62-7c-.23-3.45.13-8.95-1.38-10.36s-2.47-.44-1,7.17a79.76,79.76,0,0,1,1.47,13.79s-3.27-10-5.47-10.27-2.19,2.94-.31,5.74,5.5,7.83,6.1,10.41c0,0-3.59-7.51-6.83-5.21s2.82,6.84,5.51,8.48,4.56,11.91,4.56,11.91Z" style="fill:#f0f0f0"></path><path d="M352.38,278.27s2.69-6.06-.53-11.94-4.15-7.27-2.16-8.51,3,4.7,3,4.7a13.43,13.43,0,0,0,.19-8.4c-1.45-4.27-2.41-11.24-.51-12s.47,8.71,2.17,11.91a28,28,0,0,0,1.53-7.06c.19-3.45-.24-8.95,1.26-10.38s2.46-.47,1.07,7.16a79.19,79.19,0,0,0-1.3,13.8s3.15-10,5.34-10.34,2.23,2.9.39,5.73-5.42,7.91-6,10.5c0,0,3.5-7.56,6.76-5.31s-2.73,6.88-5.4,8.56-4.42,12-4.42,12Z" style="fill:#f0f0f0"></path><polygon points="364.77 273.95 342.59 273.95 344.38 289.82 362.97 289.82 364.77 273.95" style="fill:#f0f0f0"></polygon><polygon points="216.13 323.13 216.13 382.47 211.55 382.47 211.55 328.76 51.9 328.76 51.9 382.47 47.32 382.47 47.32 323.13 216.13 323.13" style="fill:#f0f0f0"></polygon><path d="M189.09,307c-.07-.51-1.82-12.58,1.68-16.74a3.79,3.79,0,0,1,2.91-1.43c7.07-.17,8,5.51,8,5.57l-.84.13c0-.21-.87-5-7.19-4.86a2.93,2.93,0,0,0-2.28,1.13c-3.26,3.88-1.51,15.95-1.49,16.07Z" style="fill:#f0f0f0"></path><path d="M188.67,306.45l-.85,0c0-.11.28-11.11-5.14-13.39a5.84,5.84,0,0,0-7.8,2.55l-.76-.38a6.75,6.75,0,0,1,8.89-2.94C189,294.75,188.68,306,188.67,306.45Z" style="fill:#f0f0f0"></path><path d="M188.69,307.31c0-.17-.05-17.58-3.44-22.67-3.26-4.88-8.52-2.58-8.74-2.48l-.35-.77c.06,0,6.13-2.71,9.79,2.79,3.53,5.3,3.58,22.41,3.58,23.13Z" style="fill:#f0f0f0"></path><path d="M194.69,289.24s-3.09,1.14-2.17,3.83,10.68,7.11,10.68,7.11,4.09-3.75.34-9.84S194.78,287.32,194.69,289.24Z" style="fill:#f0f0f0"></path><path d="M185.09,283.73s2.2-.24,2-1.57-8.52-4.77-13.44.78c0,0,3.15,5.42,7.71,5.49S185.09,283.73,185.09,283.73Z" style="fill:#f0f0f0"></path><path d="M182.84,292.64s1.52-1.22-.12-1.81-9.64-.43-9.72,7.5c0,0,9.33,1.56,10.48-1.47S182.84,292.64,182.84,292.64Z" style="fill:#f0f0f0"></path><polygon points="196.35 323.16 181.88 323.16 180.31 307.31 197.91 307.31 196.35 323.16" style="fill:#f0f0f0"></polygon><rect x="179.54" y="305.56" width="19.15" height="3.5" style="fill:#f0f0f0"></rect><path d="M134,307c.07-.51,1.82-12.58-1.68-16.74a3.78,3.78,0,0,0-2.91-1.43c-7.07-.17-8,5.51-8,5.57l.83.13c0-.21.87-5,7.19-4.86a2.92,2.92,0,0,1,2.28,1.13c3.26,3.88,1.51,15.95,1.49,16.07Z" style="fill:#f0f0f0"></path><path d="M134.46,306.45l.84,0c0-.11-.28-11.11,5.14-13.39a5.84,5.84,0,0,1,7.8,2.55l.76-.38a6.75,6.75,0,0,0-8.89-2.94C134.16,294.75,134.44,306,134.46,306.45Z" style="fill:#f0f0f0"></path><path d="M134.43,307.31c0-.17,0-17.58,3.44-22.67,3.26-4.88,8.52-2.58,8.74-2.48l.35-.77c-.06,0-6.13-2.71-9.79,2.79-3.53,5.3-3.58,22.41-3.58,23.13Z" style="fill:#f0f0f0"></path><path d="M128.43,289.24s3.09,1.14,2.17,3.83-10.68,7.11-10.68,7.11-4.09-3.75-.33-9.84S128.35,287.32,128.43,289.24Z" style="fill:#f0f0f0"></path><path d="M138,283.73s-2.19-.24-2-1.57,8.52-4.77,13.44.78c0,0-3.15,5.42-7.7,5.49S138,283.73,138,283.73Z" style="fill:#f0f0f0"></path><path d="M140.28,292.64s-1.52-1.22.12-1.81,9.64-.43,9.72,7.5c0,0-9.33,1.56-10.48-1.47S140.28,292.64,140.28,292.64Z" style="fill:#f0f0f0"></path><polygon points="126.77 323.16 141.25 323.16 142.81 307.31 125.21 307.31 126.77 323.16" style="fill:#f0f0f0"></polygon><rect x="124.44" y="305.56" width="19.15" height="3.5" transform="translate(268.02 614.63) rotate(180)" style="fill:#f0f0f0"></rect><path d="M79.09,307c-.07-.51-1.82-12.58,1.68-16.74a3.79,3.79,0,0,1,2.91-1.43c7.07-.17,8,5.51,8,5.57l-.84.13c0-.21-.87-5-7.19-4.86a2.93,2.93,0,0,0-2.28,1.13c-3.26,3.88-1.51,15.95-1.49,16.07Z" style="fill:#f0f0f0"></path><path d="M78.67,306.45l-.85,0c0-.11.28-11.11-5.14-13.39a5.84,5.84,0,0,0-7.8,2.55l-.76-.38A6.75,6.75,0,0,1,73,292.26C79,294.75,78.68,306,78.67,306.45Z" style="fill:#f0f0f0"></path><path d="M78.69,307.31c0-.17,0-17.58-3.44-22.67-3.26-4.88-8.52-2.58-8.74-2.48l-.35-.77c.06,0,6.13-2.71,9.79,2.79,3.53,5.3,3.58,22.41,3.58,23.13Z" style="fill:#f0f0f0"></path><path d="M84.69,289.24s-3.09,1.14-2.17,3.83,10.68,7.11,10.68,7.11,4.09-3.75.34-9.84S84.78,287.32,84.69,289.24Z" style="fill:#f0f0f0"></path><path d="M75.09,283.73s2.2-.24,2-1.57-8.52-4.77-13.44.78c0,0,3.15,5.42,7.71,5.49S75.09,283.73,75.09,283.73Z" style="fill:#f0f0f0"></path><path d="M72.84,292.64s1.52-1.22-.12-1.81-9.64-.43-9.72,7.5c0,0,9.33,1.56,10.48-1.47S72.84,292.64,72.84,292.64Z" style="fill:#f0f0f0"></path><polygon points="86.35 323.16 71.88 323.16 70.31 307.31 87.91 307.31 86.35 323.16" style="fill:#f0f0f0"></polygon><rect x="69.54" y="305.56" width="19.15" height="3.5" style="fill:#f0f0f0"></rect><polygon points="272.86 202.81 98.95 202.81 54.65 66.25 228.56 66.25 272.86 202.81" style="fill:#ebebeb"></polygon><polygon points="100.13 201.06 56.97 68.01 227.37 68.01 270.53 201.06 100.13 201.06" style="fill:#f5f5f5"></polygon><polygon points="133.47 202.35 134.62 202.35 90.62 66.71 89.47 66.71 133.47 202.35" style="fill:#ebebeb"></polygon><polygon points="167.94 202.35 169.09 202.35 125.09 66.71 123.94 66.71 167.94 202.35" style="fill:#ebebeb"></polygon><polygon points="202.41 202.35 203.56 202.35 159.56 66.71 158.41 66.71 202.41 202.35" style="fill:#ebebeb"></polygon><polygon points="236.88 202.35 238.03 202.35 194.03 66.71 192.88 66.71 236.88 202.35" style="fill:#ebebeb"></polygon><polygon points="66.18 100 66.55 101.15 239.29 101.15 238.92 100 66.18 100" style="fill:#ebebeb"></polygon><polygon points="77.2 133.96 77.57 135.11 250.31 135.11 249.94 133.96 77.2 133.96" style="fill:#ebebeb"></polygon><polygon points="88.21 167.92 88.59 169.07 261.32 169.07 260.95 167.92 88.21 167.92" style="fill:#ebebeb"></polygon><polygon points="453.88 202.81 279.97 202.81 235.67 66.25 409.58 66.25 453.88 202.81" style="fill:#ebebeb"></polygon><polygon points="281.16 201.06 237.99 68.01 408.39 68.01 451.56 201.06 281.16 201.06" style="fill:#f5f5f5"></polygon><polygon points="314.5 202.35 315.64 202.35 271.64 66.71 270.49 66.71 314.5 202.35" style="fill:#ebebeb"></polygon><polygon points="348.97 202.35 350.12 202.35 306.11 66.71 304.96 66.71 348.97 202.35" style="fill:#ebebeb"></polygon><polygon points="383.44 202.35 384.59 202.35 340.58 66.71 339.44 66.71 383.44 202.35" style="fill:#ebebeb"></polygon><polygon points="417.91 202.35 419.06 202.35 375.06 66.71 373.91 66.71 417.91 202.35" style="fill:#ebebeb"></polygon><polygon points="247.2 100 247.58 101.15 420.31 101.15 419.94 100 247.2 100" style="fill:#ebebeb"></polygon><polygon points="258.22 133.96 258.59 135.11 431.33 135.11 430.96 133.96 258.22 133.96" style="fill:#ebebeb"></polygon><polygon points="269.24 167.92 269.61 169.07 442.35 169.07 441.98 167.92 269.24 167.92" style="fill:#ebebeb"></polygon><polygon points="220.85 135.56 220.39 139.32 220.3 140.12 217.93 159.7 195.83 159.7 193.43 139.86 193.33 139.01 192.91 135.56 220.85 135.56" style="fill:#e0e0e0"></polygon><path d="M192.05,120.88a6.1,6.1,0,0,1,3.91,4,8.55,8.55,0,0,0,7.47,5.27,5.54,5.54,0,0,1,3,1l.94.54q-.06-.5-.09-1c-.26-.2-.52-.42-.77-.65l-.18-.17c-2.94-2.82-3-5.79-6.45-8.47S192.05,120.88,192.05,120.88Z" style="fill:#e0e0e0"></path><path d="M220.56,117.93a6.12,6.12,0,0,0-3.32,4.46,8.53,8.53,0,0,1-6.65,6.27,5.68,5.68,0,0,0-2.81,1.45l-.85.67c0-.33,0-.67-.05-1a8.12,8.12,0,0,0,.67-.75l.15-.19c2.51-3.21,2.18-6.16,5.19-9.29S220.56,117.93,220.56,117.93Z" style="fill:#e0e0e0"></path><path d="M207.78,130.11a18.48,18.48,0,0,1-.57,5.53c-1.65,6.41-.92.09-.92.09a16.38,16.38,0,0,0,.64-4.95c0-.33,0-.67-.05-1a14.93,14.93,0,0,0-.77-3.74c-1.74-5-5.23-6.6-6.6-12s3.39-9.26,3.39-9.26a7.67,7.67,0,0,0,2.57,6.51c3.21,3.12,3.66,8.53,2.29,11.28-.8,1.6-.29,3.61-.06,6.28C207.74,129.23,207.77,129.66,207.78,130.11Z" style="fill:#e0e0e0"></path><path d="M219.29,137.52a.5.5,0,0,1-.49-.38L207.29,89.06l-11.52,48.08a.5.5,0,0,1-.6.37.51.51,0,0,1-.37-.6l12-50.11a.52.52,0,0,1,1,0l12,50.11a.5.5,0,0,1-.37.6Z" style="fill:#e0e0e0"></path><path d="M207.29,140.8a.5.5,0,0,1-.5-.5V55.86a.5.5,0,0,1,.5-.5.51.51,0,0,1,.5.5V140.3A.5.5,0,0,1,207.29,140.8Z" style="fill:#e0e0e0"></path><polygon points="360.44 135.56 359.98 139.32 359.89 140.12 357.52 159.7 335.42 159.7 333.02 139.86 332.92 139.01 332.5 135.56 360.44 135.56" style="fill:#e0e0e0"></polygon><path d="M360,120.12a6.12,6.12,0,0,1-4.86,2.7c-3.54.3-6.55,3.38-7.09,5.76a5.7,5.7,0,0,1-1.81,2.6c-.25.24,0,.42-.23.69.33,0,.11.18.46.25a8.81,8.81,0,0,1,.84-.57l.2-.12c3.52-2.06,6.4-1.34,9.9-3.92S360,120.12,360,120.12Z" style="fill:#e0e0e0"></path><path d="M332.83,122.71a6.07,6.07,0,0,1,3.32,4.45,8.54,8.54,0,0,0,6.65,6.27,5.54,5.54,0,0,1,2.81,1.46l.86.67c0-.33,0-.68,0-1-.23-.24-.46-.49-.68-.75l-.14-.19c-2.51-3.21-2.18-6.17-5.2-9.3S332.83,122.71,332.83,122.71Z" style="fill:#e0e0e0"></path><path d="M345.61,131.9a18.76,18.76,0,0,0,.58,5.52c1.65,6.42.91.1.91.1a16.2,16.2,0,0,1-.63-5c0-.33,0-.68,0-1a14.93,14.93,0,0,1,.77-3.74c1.74-5,5.22-6.6,6.6-12s-3.39-9.26-3.39-9.26a7.67,7.67,0,0,1-2.57,6.51c-3.21,3.12-3.67,8.53-2.29,11.28.8,1.6.29,3.61.06,6.28C345.66,131,345.63,131.45,345.61,131.9Z" style="fill:#e0e0e0"></path><path d="M358.29,137.52a.5.5,0,0,1-.49-.38L346.29,89.06l-11.52,48.08a.5.5,0,0,1-.6.37.51.51,0,0,1-.37-.6l12-50.11a.52.52,0,0,1,1,0l12,50.11a.5.5,0,0,1-.37.6Z" style="fill:#e0e0e0"></path><path d="M346.29,140.8a.5.5,0,0,1-.5-.5V55.86a.5.5,0,0,1,.5-.5.51.51,0,0,1,.5.5V140.3A.5.5,0,0,1,346.29,140.8Z" style="fill:#e0e0e0"></path><polygon points="95.44 135.56 94.99 139.32 94.89 140.12 92.52 159.7 70.42 159.7 68.02 139.86 67.92 139.01 67.5 135.56 95.44 135.56" style="fill:#e0e0e0"></polygon><path d="M95.81,124a6.1,6.1,0,0,0-3.91,4,8.55,8.55,0,0,1-7.47,5.27,5.59,5.59,0,0,0-3,1l-.94.54c0-.33.08-.67.1-1,.26-.2.52-.42.77-.65l.17-.17c2.94-2.82,3-5.79,6.46-8.47S95.81,124,95.81,124Z" style="fill:#e0e0e0"></path><path d="M67.58,117.22A6.09,6.09,0,0,0,72,120.6a8.58,8.58,0,0,1,6.16,6.75,5.64,5.64,0,0,0,1.41,2.83l.66.87c-.33,0,0,1.25-.33,1.28a9.3,9.3,0,0,0-1.44-1.93l-.19-.15c-3.17-2.56-6.13-2.27-9.21-5.34S67.58,117.22,67.58,117.22Z" style="fill:#e0e0e0"></path><path d="M79.63,130.11a18.86,18.86,0,0,0,.58,5.53c1.65,6.41.92.09.92.09a16.38,16.38,0,0,1-.64-4.95c0-.33,0-.67.05-1a14.93,14.93,0,0,1,.77-3.74c1.74-5,5.22-6.6,6.6-12s-3.39-9.26-3.39-9.26A7.67,7.67,0,0,1,82,111.25c-3.21,3.12-3.67,8.53-2.29,11.28.8,1.6.29,3.61.06,6.28C79.68,129.23,79.65,129.66,79.63,130.11Z" style="fill:#e0e0e0"></path><path d="M93.29,137.52a.5.5,0,0,1-.49-.38L81.29,89.06,69.77,137.14a.5.5,0,0,1-.6.37.51.51,0,0,1-.37-.6l12-50.11a.52.52,0,0,1,1,0l12,50.11a.5.5,0,0,1-.37.6Z" style="fill:#e0e0e0"></path><path d="M81.29,140.8a.5.5,0,0,1-.5-.5V55.86a.5.5,0,0,1,.5-.5.51.51,0,0,1,.5.5V140.3A.5.5,0,0,1,81.29,140.8Z" style="fill:#e0e0e0"></path></g><g id="freepik--Shadow--inject-24"><ellipse id="freepik--path--inject-24" cx="250" cy="416.24" rx="193.89" ry="11.32" style="fill:#f5f5f5"></ellipse></g><g id="freepik--plant-3--inject-24"><path d="M384.65,382.85c0-.39-1.31-38.6-7.52-44.64-6-5.86-13-.22-13.26,0l-.64-.77c.08-.07,7.92-6.47,14.59,0,6.5,6.32,7.77,43.74,7.83,45.33Z" style="fill:#16A34A"></path><path d="M385.18,390.36c0-.46-4.25-45.89,12.34-64.93l.76.66c-16.31,18.72-12.15,63.72-12.1,64.17Z" style="fill:#16A34A"></path><path d="M384.59,385.55l-1-.06c0-.52,3.24-51.64-8.92-62.82l.68-.74C387.87,333.44,384.73,383.43,384.59,385.55Z" style="fill:#16A34A"></path><path d="M386.18,385.52h-1c0-1.41.4-34.54,9.82-39.94a6.66,6.66,0,0,1,6.1-.59c5.69,2.35,8.51,12.48,8.63,12.91l-1,.27c0-.1-2.81-10.09-8.06-12.26a5.73,5.73,0,0,0-5.22.54C386.57,351.56,386.18,385.19,386.18,385.52Z" style="fill:#16A34A"></path><path d="M382.51,385.55l-1-.06c0-.26,1.42-26.17-5.58-35.3-1.69-2.2-3.54-3.25-5.46-3.12-4.58.32-8.42,7-8.45,7.09l-.88-.5c.17-.29,4.14-7.23,9.26-7.59,2.3-.15,4.42,1,6.33,3.52C384,359,382.58,384.47,382.51,385.55Z" style="fill:#16A34A"></path><path d="M384,389.07c-.19-2.51-4.57-61.69,3.14-72.12l.8.59c-7.49,10.14-3,70.85-2.94,71.46Z" style="fill:#16A34A"></path><path d="M403.19,351s-4.63,1.71-3.25,5.74,16,10.65,16,10.65,6.12-5.62.5-14.75S403.31,348.11,403.19,351Z" style="fill:#16A34A"></path><path d="M403.19,351s-4.63,1.71-3.25,5.74,16,10.65,16,10.65,6.12-5.62.5-14.75S403.31,348.11,403.19,351Z" style="fill:#fff;opacity:0.2;isolation:isolate"></path><path d="M383.08,343.33s4.93-.2,5.21,4-10.67,16-10.67,16-7.82-2.83-6.14-13.42S381.86,340.72,383.08,343.33Z" style="fill:#16A34A"></path><path d="M383.08,343.33s4.93-.2,5.21,4-10.67,16-10.67,16-7.82-2.83-6.14-13.42S381.86,340.72,383.08,343.33Z" style="fill:#fff;opacity:0.2;isolation:isolate"></path><path d="M378.91,323s3.28-.35,3-2.35-12.76-7.15-20.14,1.18c0,0,4.72,8.11,11.55,8.22S378.91,323,378.91,323Z" style="fill:#16A34A"></path><path d="M378.91,323s3.28-.35,3-2.35-12.76-7.15-20.14,1.18c0,0,4.72,8.11,11.55,8.22S378.91,323,378.91,323Z" style="fill:#fff;opacity:0.2;isolation:isolate"></path><path d="M385,318.16s-3,1.44-3.81-.4,7.06-12.82,17.72-9.65c0,0,.28,9.38-5.46,13.08S385,318.16,385,318.16Z" style="fill:#16A34A"></path><path d="M385,318.16s-3,1.44-3.81-.4,7.06-12.82,17.72-9.65c0,0,.28,9.38-5.46,13.08S385,318.16,385,318.16Z" style="fill:#fff;opacity:0.2;isolation:isolate"></path><path d="M369.48,349.38s2.27-1.83-.18-2.73-14.44-.64-14.57,11.25c0,0,14,2.32,15.71-2.2S369.48,349.38,369.48,349.38Z" style="fill:#16A34A"></path><path d="M369.48,349.38s2.27-1.83-.18-2.73-14.44-.64-14.57,11.25c0,0,14,2.32,15.71-2.2S369.48,349.38,369.48,349.38Z" style="fill:#fff;opacity:0.2;isolation:isolate"></path><path d="M398,322.72s-2.26-1.83.18-2.73,14.45-.64,14.57,11.25c0,0-14,2.32-15.7-2.2S398,322.72,398,322.72Z" style="fill:#16A34A"></path><path d="M398,322.72s-2.26-1.83.18-2.73,14.45-.64,14.57,11.25c0,0-14,2.32-15.7-2.2S398,322.72,398,322.72Z" style="fill:#fff;opacity:0.2;isolation:isolate"></path><path d="M390.59,332.29s-.19-2.22,1.6-1.35,8.05,7.62,1.57,14c0,0-8.73-6.46-7.16-9.83S390.59,332.29,390.59,332.29Z" style="fill:#16A34A"></path><path d="M390.59,332.29s-.19-2.22,1.6-1.35,8.05,7.62,1.57,14c0,0-8.73-6.46-7.16-9.83S390.59,332.29,390.59,332.29Z" style="fill:#fff;opacity:0.2;isolation:isolate"></path><path d="M367.46,335.46s1.35-1.77-.63-2-10.88,2.15-8.81,11c0,0,10.84-.82,11.3-4.51S367.46,335.46,367.46,335.46Z" style="fill:#16A34A"></path><path d="M367.46,335.46s1.35-1.77-.63-2-10.88,2.15-8.81,11c0,0,10.84-.82,11.3-4.51S367.46,335.46,367.46,335.46Z" style="fill:#fff;opacity:0.2;isolation:isolate"></path><polygon points="404.05 418.47 366.89 418.47 362.88 377.78 408.06 377.78 404.05 418.47" style="fill:#263238"></polygon><rect x="360.89" y="373.29" width="49.15" height="8.98" style="fill:#263238"></rect><rect x="360.89" y="373.29" width="49.15" height="8.98" style="fill:#fff;opacity:0.2;isolation:isolate"></rect></g><g id="freepik--Character--inject-24"><path d="M309.07,256.9c0,.74,0,1.49,0,2.26a96,96,0,0,1-3.56,22c-1.18,4.48-2.6,9-4.12,13.36-.43,1.24-.87,2.47-1.32,3.68-.12.34-.24.68-.37,1a305.84,305.84,0,0,1-15,33.82c-7.22,35.24-24.94,76-24.94,76L253.83,407,273,319.48l4.89-21.54,1.05-4.64,1.86-8.21,1.83-8,3.43-15.15,13.77-3Z" style="fill:#e4897b"></path><path d="M309.06,259.16a96,96,0,0,1-3.56,22c-1.18,4.48-2.6,9-4.12,13.36-.43,1.24-.87,2.47-1.32,3.68-7.16,1.11-16.48.37-22.17-.3l1.05-4.64,1.86-8.21,1.83-8,3.43-15.15,13.77-3Z" style="opacity:0.2;isolation:isolate"></path><path d="M330.18,285.71c-.35,3.57-.8,7.13-1.31,10.59-.23,1.58-.47,3.14-.73,4.67a304.78,304.78,0,0,1-6.95,31.54c.26,36-8.59,79.57-8.59,79.57l-6.17-.81.53-89.63.26-19,.11-7.84.05-3.55.39-28.65,21.47-9.66C331.43,262.29,331.33,274.09,330.18,285.71Z" style="fill:#e4897b"></path><path d="M330.18,285.71c-.35,3.57-.8,7.13-1.31,10.59-.23,1.58-.47,3.14-.73,4.67-6.5,1.79-15.67,1.83-20.92,1.67l.11-7.84.05-3.55Z" style="opacity:0.2;isolation:isolate"></path><path d="M259.63,215.3l-8.56-3.72c-.22-2-8.75-2.93-9.76-2.57s-3,6-2.79,7.37,9,.16,9.9,0,1.73-.41,1.73-.41l7.35,4Z" style="fill:#e4897b"></path><path d="M285.19,205.65s-.24,1.15-.7,2.9c-1,3.83-3.18,10.55-6.51,14.21a7.86,7.86,0,0,1-3.35,2.34c-7.12,2.21-20.79-6-20.79-6l2.44-6.53s12.35,6.6,15.52,4,5.62-19.81,10.15-21.66Z" style="fill:#16A34A"></path><path d="M284.49,208.55c-1,3.83-3.18,10.55-6.51,14.21-2.47-11.12,4.59-20.12,4.59-20.12Z" style="opacity:0.2;isolation:isolate"></path><path d="M262.19,407.07c0-.79-9.63-.17-9.63-.17s-5.91,6-11.65,7.36-2.54,4.8,3.88,4.8h15.88C265.23,419.06,262.38,415.17,262.19,407.07Z" style="fill:#263238"></path><path d="M247.51,409.36a1.34,1.34,0,0,1-.85-.23.92.92,0,0,1-.23-1,1.05,1.05,0,0,1,.51-.65,3.94,3.94,0,0,1,2.15-.23c-.78-.42-1.46-.93-1.49-1.43q0-.5.63-.81a1.49,1.49,0,0,1,1.24,0c1.3.54,2.11,2.77,2.15,2.88a.41.41,0,0,1,0,.11h0a.24.24,0,0,1,0,.08h0a.25.25,0,0,1,0,.07h0l-.08.06A12.1,12.1,0,0,1,247.51,409.36Zm.81-1.68a2.43,2.43,0,0,0-1.13.21.52.52,0,0,0-.27.34c-.1.37,0,.47.06.5.45.38,2.21-.15,3.63-.75A11.2,11.2,0,0,0,248.32,407.68Zm.57-2.35a1,1,0,0,0-.44.11c-.13.06-.35.18-.35.32,0,.43,1.4,1.18,2.83,1.72a4.25,4.25,0,0,0-1.65-2.07A1.09,1.09,0,0,0,248.89,405.33Z" style="fill:#16A34A"></path><path d="M314.79,407.07c0-.79-9.63-.17-9.63-.17s-5.91,6-11.65,7.36-2.54,4.8,3.88,4.8h15.88C317.83,419.06,315,415.17,314.79,407.07Z" style="fill:#263238"></path><path d="M300.11,409.36a1.36,1.36,0,0,1-.85-.23.92.92,0,0,1-.23-1,1.05,1.05,0,0,1,.51-.65,3.94,3.94,0,0,1,2.15-.23c-.78-.42-1.46-.93-1.49-1.43q0-.5.63-.81a1.49,1.49,0,0,1,1.24,0c1.3.54,2.11,2.77,2.15,2.88a.41.41,0,0,1,0,.11h0a.24.24,0,0,1,0,.08h0a.25.25,0,0,1,0,.07h0l-.08.06A12.1,12.1,0,0,1,300.11,409.36Zm.81-1.68a2.43,2.43,0,0,0-1.13.21.52.52,0,0,0-.27.34c-.1.37,0,.47.06.5.45.38,2.21-.15,3.63-.75A11.2,11.2,0,0,0,300.92,407.68Zm.57-2.35a1,1,0,0,0-.44.11c-.13.06-.35.18-.35.32,0,.43,1.4,1.18,2.83,1.72a4.25,4.25,0,0,0-1.65-2.07A1.09,1.09,0,0,0,301.49,405.33Z" style="fill:#16A34A"></path><path d="M298.29,168s3-7.56,10-5c12.3,4.44,8.56,38.2,8.56,38.2l-12.31,1.4s3.31-26.38,1.33-30.05-4.61.44-4.61.44Z" style="fill:#263238"></path><path d="M335.16,297.63s-15.27,3.67-30.33-.55l-.54-7.91L302,295.94c-15.26,1.69-25.16-4.88-25.16-4.88a199.36,199.36,0,0,1,12.72-43l3.57-16.84,32.7,2.53C332.94,247.32,335.11,270.22,335.16,297.63Z" style="fill:#263238"></path><path d="M292.33,239.79,326.87,249c-1-4.15-2.49-9.34-4.36-15.06l.57-34.72s-22.29-12.74-40.1-3.5c0,0-.67,18.72.75,25.3C284.84,226.11,291.12,234.72,292.33,239.79Z" style="fill:#16A34A"></path><path d="M292.33,239.79,326.87,249c-1-4.15-2.49-9.34-4.36-15.06l.57-34.72s-22.29-12.74-40.1-3.5c0,0-.67,18.72.75,25.3C284.84,226.11,291.12,234.72,292.33,239.79Z" style="fill:#fff;opacity:0.6000000000000001;isolation:isolate"></path><path d="M295.43,205.76a17.5,17.5,0,0,1-6.28-6.29c-1.68-2.93-1.89-5.59-.74-6.2,2-1.06,10.19-7,10.19-7a7,7,0,0,0,.72,1.8c1.08,1.95,3.69,5,9.78,6.65C318.5,197.26,302.32,209.84,295.43,205.76Z" style="fill:#e4897b"></path><path d="M294.58,199a6.36,6.36,0,0,0,1.14,3.9,28.81,28.81,0,0,1-6.57-3.41c-1.68-2.93-1.89-5.59-.74-6.2,2-1.06,10.19-7,10.19-7a7,7,0,0,0,.72,1.8C299.83,192,298,195.94,294.58,199Z" style="opacity:0.2;isolation:isolate"></path><path d="M332.48,250.31s-17.34,3.71-23.43-2.83a51.31,51.31,0,0,1-9.5-14.09c-.27-.6-.51-1.19-.73-1.76-3-7.56-2.54-12.81-2.54-12.81l1.06-.72c15.1-10.73,18.06-23.2,18.06-23.2l7.68,4.32,6,35.36A142.42,142.42,0,0,0,332.48,250.31Z" style="fill:#16A34A"></path><path d="M298.56,234c-2.82,9.66-8.19,7.89-8.19,7.89s-.5-1.79-1.3-4.16a49.75,49.75,0,0,0-3.37-7.95c-5.49-9.64-3.75-34.87-3.75-34.87l3.12-1s-.17,15.18,12.27,24.19a36.11,36.11,0,0,1,1.48,13.54A11.63,11.63,0,0,1,298.56,234Z" style="fill:#16A34A"></path><path d="M297.85,220.46a.69.69,0,1,1-.62-.75A.69.69,0,0,1,297.85,220.46Z" style="fill:#263238"></path><path d="M299.17,228.57a.68.68,0,0,1-.75.62.69.69,0,1,1,.14-1.37A.68.68,0,0,1,299.17,228.57Z" style="fill:#263238"></path><path d="M309.05,247.48a51.31,51.31,0,0,1-9.5-14.09c5.36-3.47,13.68-14.63,18.1-26.24l5.79,11.62S324.55,237.25,309.05,247.48Z" style="opacity:0.2;isolation:isolate"></path><path d="M298.56,234c-2.82,9.66-8.19,7.89-8.19,7.89s-.5-1.79-1.3-4.16A29.57,29.57,0,0,0,298.56,234Z" style="opacity:0.2;isolation:isolate"></path><path d="M277.9,175.2s-1.34-12.34,17.78-10A13.69,13.69,0,0,1,304.73,176c1.43,8.59,1.87,14.6-5.22,14.72S277.9,175.2,277.9,175.2Z" style="fill:#263238"></path><path d="M286.78,170.73c-7.71,1.87-9.19,6.59-7.82,14.67,1.7,10.09,5.61,16.61,14.73,12.15C306.07,191.5,299.57,167.63,286.78,170.73Z" style="fill:#e4897b"></path><path d="M283.83,183.76a16.74,16.74,0,0,1-1.47,3.74,2.19,2.19,0,0,0,2.25.38Z" style="fill:#de5753"></path><path d="M288.39,182c.14.63.6,1.07,1,1s.66-.68.52-1.32-.6-1.08-1-1S288.25,181.35,288.39,182Z" style="fill:#263238"></path><path d="M289.09,180.66l-1.5-.24S288.53,181.43,289.09,180.66Z" style="fill:#263238"></path><path d="M280.45,183.58c.14.64.6,1.08,1,1s.66-.68.52-1.32-.6-1.07-1-1S280.31,182.94,280.45,183.58Z" style="fill:#263238"></path><path d="M281.15,182.25l-1.5-.24S280.59,183,281.15,182.25Z" style="fill:#263238"></path><path d="M290.8,177.36a.34.34,0,0,1-.21-.08,3.79,3.79,0,0,0-3.28-.3.35.35,0,0,1-.46-.21.35.35,0,0,1,.2-.45,4.46,4.46,0,0,1,4,.4.36.36,0,0,1-.22.64Z" style="fill:#263238"></path><path d="M278.59,179.41a.35.35,0,0,1-.26-.59,4,4,0,0,1,3.21-1.49.34.34,0,0,1,.31.39.34.34,0,0,1-.39.31,3.39,3.39,0,0,0-2.61,1.27A.34.34,0,0,1,278.59,179.41Z" style="fill:#263238"></path><path d="M298.35,181.67s-5.14-5.46-5.78-10.47c0,0-16.78-2.54-13.77,13.14,0,0-4.83-13.4,8.33-16.92s17.82,15.87,12.38,23.3C299.51,190.72,301.53,185.09,298.35,181.67Z" style="fill:#263238"></path><path d="M297.48,183.6a3.48,3.48,0,0,1,2.89-4c2.45-.32,4.78,4.31-.87,6.93C298.68,186.93,298,186.22,297.48,183.6Z" style="fill:#e4897b"></path><path d="M292.44,164.82s-17.86-.13-17.28,16.21a20.69,20.69,0,0,1,5.08-2.49,15.72,15.72,0,0,1,2.41-5.31,15.36,15.36,0,0,0-1.59,5,23.84,23.84,0,0,1,4.74-.93,17.4,17.4,0,0,1,.53-4.62,27.5,27.5,0,0,0,.46,4.54,23.63,23.63,0,0,1,5.15.31,19.66,19.66,0,0,1-1.63-4.85,12,12,0,0,0,2.56,5q.84.17,1.71.42s-3.2-4.87-.9-8.56S292.44,164.82,292.44,164.82Z" style="fill:#263238"></path><path d="M285.64,190.32a20.21,20.21,0,0,1,2.13,2l.43-.28c1.91-1.31,2.37-2.55,2.29-3.53a3,3,0,0,0-.46-1.33,3.12,3.12,0,0,0-.51-.63,11,11,0,0,1-3.23,3.34C285.9,190.15,285.64,190.32,285.64,190.32Z" style="fill:#263238"></path><path d="M286.29,189.86l.64.57c1.8-1.24,2.9-2.35,3.1-3.28a3.12,3.12,0,0,0-.51-.63A11,11,0,0,1,286.29,189.86Z" style="fill:#fff"></path><path d="M288.2,192c1.91-1.31,2.37-2.55,2.29-3.53a7.66,7.66,0,0,0-1.84,1.88A2.8,2.8,0,0,0,288.2,192Z" style="fill:#de5753"></path><path d="M263.6,230.18a1,1,0,0,1-1-.68c-.05-.15-5.38-14.93-12.82-16.73-2.34-.57-4.63.23-7,2.45a1,1,0,0,1-1.41-1.49c2.87-2.7,5.86-3.7,8.89-3,8.51,2.07,14,17.39,14.27,18a1,1,0,0,1-.63,1.31A.79.79,0,0,1,263.6,230.18Z" style="fill:#263238"></path><g style="opacity:0.4;isolation:isolate"><path d="M263.6,230.18a1,1,0,0,1-1-.68c-.05-.15-5.38-14.93-12.82-16.73-2.34-.57-4.63.23-7,2.45a1,1,0,0,1-1.41-1.49c2.87-2.7,5.86-3.7,8.89-3,8.51,2.07,14,17.39,14.27,18a1,1,0,0,1-.63,1.31A.79.79,0,0,1,263.6,230.18Z" style="fill:#fff"></path></g><path d="M240.44,240.8l18.84,24.62s12.91-1.94,19.54-14.11L263.43,226.5A27.56,27.56,0,0,0,240.44,240.8Z" style="fill:#263238"></path><path d="M278.82,251.3c-6.64,12.17-19.54,14.13-19.54,14.13L240.43,240.8a27.64,27.64,0,0,1,22.93-14.31h.06Z" style="fill:#fff;opacity:0.6000000000000001;isolation:isolate"></path><path d="M263.42,226.5s-2.39,4.7-10.64,10.1-12.35,4.2-12.35,4.2a27.64,27.64,0,0,1,22.93-14.31Z" style="fill:#fff;opacity:0.6000000000000001;isolation:isolate"></path><path d="M254.45,253.19s-10.91-1.47-14.18-1.46-5.39,6-5.39,6l2.92,1.08s2.57-3.69,4.45-3.24S257,261.17,257,261.17,259.05,255,254.45,253.19Z" style="fill:#263238"></path><path d="M254.45,253.19s-10.91-1.47-14.18-1.46-5.39,6-5.39,6l2.92,1.08s2.57-3.69,4.45-3.24S257,261.17,257,261.17,259.05,255,254.45,253.19Z" style="fill:#fff;opacity:0.4;isolation:isolate"></path><path d="M228.94,258.78s3.65-2.86,7.7-1.91,5.31,6.18,5.31,6.18S234.52,267.49,228.94,258.78Z" style="fill:#263238"></path><path d="M242,263.05s-7.45,4.44-13-4.26c0,0,3.64-2.86,7.69-1.92S242,263.05,242,263.05Z" style="fill:#fff;opacity:0.6000000000000001;isolation:isolate"></path><path d="M242,263.05s-7.45,4.44-13-4.26C229,258.79,236.25,255.84,242,263.05Z" style="opacity:0.2"></path><path d="M243.4,243.21a1.08,1.08,0,0,1-.84-.37c-.14-.17-14-17.13-1.2-29.11a1,1,0,0,1,1.41,1.49c-11.36,10.67.85,25.67,1.38,26.3A1,1,0,0,1,244,243,1,1,0,0,1,243.4,243.21Z" style="fill:#263238"></path><g style="opacity:0.4;isolation:isolate"><path d="M243.4,243.21a1.08,1.08,0,0,1-.84-.37c-.14-.17-14-17.13-1.2-29.11a1,1,0,0,1,1.41,1.49c-11.36,10.67.85,25.67,1.38,26.3A1,1,0,0,1,244,243,1,1,0,0,1,243.4,243.21Z" style="fill:#fff"></path></g><path d="M221.46,276.11c-.13.68-.22,1.37-.28,2a.36.36,0,0,0,.33.4.28.28,0,0,0,.13,0,.37.37,0,0,0,.28-.32,19.6,19.6,0,0,1,.27-2,.37.37,0,0,0-.3-.43A.36.36,0,0,0,221.46,276.11Z" style="fill:#16A34A"></path><path d="M222.63,271.84a25.59,25.59,0,0,0-.91,3,.37.37,0,0,0,.27.45.36.36,0,0,0,.18,0,.36.36,0,0,0,.27-.27,26.84,26.84,0,0,1,.89-3,.36.36,0,0,0-.22-.47A.36.36,0,0,0,222.63,271.84Z" style="fill:#16A34A"></path><path d="M226.16,265.46a.37.37,0,0,0-.51.12,36.48,36.48,0,0,0-2.31,4.47.37.37,0,0,0,.19.49.34.34,0,0,0,.24,0,.37.37,0,0,0,.25-.21,34.4,34.4,0,0,1,2.27-4.38A.37.37,0,0,0,226.16,265.46Z" style="fill:#16A34A"></path><path d="M226.86,264.88a.37.37,0,0,0,.21-.16c.78-1.16,1.33-1.84,1.33-1.85a.37.37,0,0,0-.05-.52.38.38,0,0,0-.52,0s-.58.72-1.37,1.92a.36.36,0,0,0,.1.51A.4.4,0,0,0,226.86,264.88Z" style="fill:#16A34A"></path><path d="M240.12,280.12a.37.37,0,0,0-.22.47,18.89,18.89,0,0,0,.78,1.9.38.38,0,0,0,.43.2l.06,0a.37.37,0,0,0,.18-.49c-.28-.58-.53-1.2-.76-1.83A.36.36,0,0,0,240.12,280.12Z" style="fill:#16A34A"></path><path d="M240,279.65h0a.36.36,0,0,0,.25-.46,26.84,26.84,0,0,1-.73-3,.36.36,0,0,0-.43-.3.38.38,0,0,0-.3.43,28.48,28.48,0,0,0,.75,3.09A.37.37,0,0,0,240,279.65Z" style="fill:#16A34A"></path><path d="M238.59,269a.36.36,0,0,0-.38.36,37.75,37.75,0,0,0,.25,5,.38.38,0,0,0,.42.33h.05a.38.38,0,0,0,.27-.41,36.25,36.25,0,0,1-.25-4.93A.36.36,0,0,0,238.59,269Z" style="fill:#16A34A"></path><path d="M238.91,265.23a.37.37,0,0,0-.42.31s-.14.91-.22,2.34a.36.36,0,0,0,.35.39.2.2,0,0,0,.11,0,.37.37,0,0,0,.28-.33c.08-1.4.21-2.27.21-2.27A.37.37,0,0,0,238.91,265.23Z" style="fill:#16A34A"></path><path d="M232.35,265.06c-.29.6-.57,1.23-.82,1.88a.38.38,0,0,0,.22.48.36.36,0,0,0,.23,0,.38.38,0,0,0,.25-.23c.24-.62.5-1.23.79-1.81a.37.37,0,1,0-.67-.33Z" style="fill:#16A34A"></path><path d="M231.12,268.13a27.51,27.51,0,0,0-.81,3.07.38.38,0,0,0,.29.44.32.32,0,0,0,.17,0,.37.37,0,0,0,.27-.28,26.1,26.1,0,0,1,.78-3,.37.37,0,0,0-.24-.47A.36.36,0,0,0,231.12,268.13Z" style="fill:#16A34A"></path><path d="M230,273.09a36.11,36.11,0,0,0-.34,5,.36.36,0,0,0,.37.37h.09a.38.38,0,0,0,.28-.36,34.44,34.44,0,0,1,.34-4.92.38.38,0,0,0-.32-.42A.37.37,0,0,0,230,273.09Z" style="fill:#16A34A"></path><path d="M230,279.23a.37.37,0,0,0-.36.39c.06,1.43.18,2.31.18,2.35a.37.37,0,0,0,.42.31h0a.38.38,0,0,0,.27-.41s-.12-.88-.18-2.27A.37.37,0,0,0,230,279.23Z" style="fill:#16A34A"></path><g style="opacity:0.6000000000000001;isolation:isolate"><path d="M221.46,276.11c-.13.68-.22,1.37-.28,2a.36.36,0,0,0,.33.4.28.28,0,0,0,.13,0,.37.37,0,0,0,.28-.32,19.6,19.6,0,0,1,.27-2,.37.37,0,0,0-.3-.43A.36.36,0,0,0,221.46,276.11Z" style="fill:#fff"></path><path d="M222.63,271.84a25.59,25.59,0,0,0-.91,3,.37.37,0,0,0,.27.45.36.36,0,0,0,.18,0,.36.36,0,0,0,.27-.27,26.84,26.84,0,0,1,.89-3,.36.36,0,0,0-.22-.47A.36.36,0,0,0,222.63,271.84Z" style="fill:#fff"></path><path d="M226.16,265.46a.37.37,0,0,0-.51.12,36.48,36.48,0,0,0-2.31,4.47.37.37,0,0,0,.19.49.34.34,0,0,0,.24,0,.37.37,0,0,0,.25-.21,34.4,34.4,0,0,1,2.27-4.38A.37.37,0,0,0,226.16,265.46Z" style="fill:#fff"></path><path d="M226.86,264.88a.37.37,0,0,0,.21-.16c.78-1.16,1.33-1.84,1.33-1.85a.37.37,0,0,0-.05-.52.38.38,0,0,0-.52,0s-.58.72-1.37,1.92a.36.36,0,0,0,.1.51A.4.4,0,0,0,226.86,264.88Z" style="fill:#fff"></path><path d="M240.12,280.12a.37.37,0,0,0-.22.47,18.89,18.89,0,0,0,.78,1.9.38.38,0,0,0,.43.2l.06,0a.37.37,0,0,0,.18-.49c-.28-.58-.53-1.2-.76-1.83A.36.36,0,0,0,240.12,280.12Z" style="fill:#fff"></path><path d="M240,279.65h0a.36.36,0,0,0,.25-.46,26.84,26.84,0,0,1-.73-3,.36.36,0,0,0-.43-.3.38.38,0,0,0-.3.43,28.48,28.48,0,0,0,.75,3.09A.37.37,0,0,0,240,279.65Z" style="fill:#fff"></path><path d="M238.59,269a.36.36,0,0,0-.38.36,37.75,37.75,0,0,0,.25,5,.38.38,0,0,0,.42.33h.05a.38.38,0,0,0,.27-.41,36.25,36.25,0,0,1-.25-4.93A.36.36,0,0,0,238.59,269Z" style="fill:#fff"></path><path d="M238.91,265.23a.37.37,0,0,0-.42.31s-.14.91-.22,2.34a.36.36,0,0,0,.35.39.2.2,0,0,0,.11,0,.37.37,0,0,0,.28-.33c.08-1.4.21-2.27.21-2.27A.37.37,0,0,0,238.91,265.23Z" style="fill:#fff"></path><path d="M232.35,265.06c-.29.6-.57,1.23-.82,1.88a.38.38,0,0,0,.22.48.36.36,0,0,0,.23,0,.38.38,0,0,0,.25-.23c.24-.62.5-1.23.79-1.81a.37.37,0,1,0-.67-.33Z" style="fill:#fff"></path><path d="M231.12,268.13a27.51,27.51,0,0,0-.81,3.07.38.38,0,0,0,.29.44.32.32,0,0,0,.17,0,.37.37,0,0,0,.27-.28,26.1,26.1,0,0,1,.78-3,.37.37,0,0,0-.24-.47A.36.36,0,0,0,231.12,268.13Z" style="fill:#fff"></path><path d="M230,273.09a36.11,36.11,0,0,0-.34,5,.36.36,0,0,0,.37.37h.09a.38.38,0,0,0,.28-.36,34.44,34.44,0,0,1,.34-4.92.38.38,0,0,0-.32-.42A.37.37,0,0,0,230,273.09Z" style="fill:#fff"></path><path d="M230,279.23a.37.37,0,0,0-.36.39c.06,1.43.18,2.31.18,2.35a.37.37,0,0,0,.42.31h0a.38.38,0,0,0,.27-.41s-.12-.88-.18-2.27A.37.37,0,0,0,230,279.23Z" style="fill:#fff"></path></g><path d="M290,240.88l-8.58,3.69c-1.61-1.21-8.14,4.36-8.57,5.35s2.3,6.33,3.46,7.08,6.26-6.42,6.77-7.23.89-1.54.89-1.54l7.95-2.6Z" style="fill:#e4897b"></path><path d="M323.08,199.22c10.81,7.7-6.18,34.4-8.77,37.35s-26.44,11.27-26.44,11.27l-2.94-5.76s18.45-8.51,21.34-12.2,8.56-13.2,11.79-23.71C319.66,201,323.08,199.22,323.08,199.22Z" style="fill:#16A34A"></path></g><g id="freepik--plant-2--inject-24"><path d="M215.25,291.2a6.12,6.12,0,0,1,3.92,3.95,8.55,8.55,0,0,0,7.46,5.27,5.57,5.57,0,0,1,3,1l.94.55c0-.33-.07-.68-.09-1-.27-.2-.52-.42-.78-.65l-.17-.17c-2.94-2.82-3-5.79-6.45-8.47S215.25,291.2,215.25,291.2Z" style="fill:#16A34A"></path><path d="M243.77,288.25a6.1,6.1,0,0,0-3.32,4.46A8.56,8.56,0,0,1,233.8,299a5.64,5.64,0,0,0-2.81,1.45l-.85.67c0-.33,0-.67,0-1,.23-.24.45-.49.67-.76l.15-.18c2.51-3.22,2.17-6.17,5.19-9.3S243.77,288.25,243.77,288.25Z" style="fill:#16A34A"></path><path d="M231,300.43a19.16,19.16,0,0,1-.57,5.53c-1.65,6.41-.92.09-.92.09a16.3,16.3,0,0,0,.64-4.95c0-.33,0-.67,0-1a15.85,15.85,0,0,0-.77-3.75c-1.74-5-5.23-6.6-6.6-12s3.39-9.25,3.39-9.25a7.65,7.65,0,0,0,2.57,6.5c3.2,3.12,3.66,8.53,2.29,11.28-.81,1.6-.3,3.61-.06,6.29C230.94,299.55,231,300,231,300.43Z" style="fill:#16A34A"></path><path d="M207.43,290.44a6.09,6.09,0,0,1-4.86,2.7,8.55,8.55,0,0,0-7.09,5.77,5.73,5.73,0,0,1-1.81,2.59c-.25.24,0,.42-.24.69.33.05.12.18.47.25.26-.19.54-.39.83-.57l.21-.12c3.51-2.06,6.4-1.34,9.9-3.92S207.43,290.44,207.43,290.44Z" style="fill:#16A34A"></path><path d="M180.28,293a6.07,6.07,0,0,1,3.32,4.45,8.53,8.53,0,0,0,6.65,6.27,5.66,5.66,0,0,1,2.81,1.46l.85.67c0-.33,0-.68.06-1a8.2,8.2,0,0,1-.68-.75l-.15-.19c-2.51-3.21-2.17-6.16-5.19-9.3S180.28,293,180.28,293Z" style="fill:#16A34A"></path><path d="M193.06,302.22a18.86,18.86,0,0,0,.58,5.53c1.65,6.41.91.09.91.09a16.38,16.38,0,0,1-.64-4.95c0-.33,0-.67.06-1a14.93,14.93,0,0,1,.77-3.74c1.74-5,5.22-6.6,6.6-12s-3.4-9.26-3.4-9.26a7.64,7.64,0,0,1-2.56,6.51c-3.21,3.12-3.67,8.53-2.29,11.28.8,1.6.29,3.61,0,6.28C193.11,301.34,193.08,301.77,193.06,302.22Z" style="fill:#16A34A"></path><path d="M173.5,294.28a6.1,6.1,0,0,0-3.91,4,8.55,8.55,0,0,1-7.47,5.27,5.59,5.59,0,0,0-3,1l-.93.54q.06-.49.09-1c.26-.2.52-.42.77-.65l.18-.17c2.93-2.82,3-5.79,6.45-8.47S173.5,294.28,173.5,294.28Z" style="fill:#16A34A"></path><path d="M145.27,287.54a6.11,6.11,0,0,0,4.41,3.39,8.54,8.54,0,0,1,6.16,6.74,5.6,5.6,0,0,0,1.41,2.83l.66.87c-.33,0,0,1.25-.33,1.28a9.3,9.3,0,0,0-1.44-1.93l-.19-.15c-3.17-2.56-6.13-2.27-9.21-5.34S145.27,287.54,145.27,287.54Z" style="fill:#16A34A"></path><path d="M157.33,300.43a18.48,18.48,0,0,0,.57,5.53c1.65,6.41.92.09.92.09a16.3,16.3,0,0,1-.64-4.95c0-.33,0-.67,0-1a14.91,14.91,0,0,1,.77-3.75c1.74-5,5.23-6.6,6.6-12s-3.39-9.25-3.39-9.25a7.65,7.65,0,0,1-2.57,6.5c-3.21,3.12-3.66,8.53-2.29,11.28.8,1.6.29,3.61.06,6.29C157.37,299.55,157.34,300,157.33,300.43Z" style="fill:#16A34A"></path><polygon points="264.82 336.54 264.82 418.47 260.24 418.47 260.24 343.94 170.59 343.94 170.59 418.47 166.01 418.47 166.01 336.54 264.82 336.54" style="fill:#263238"></polygon><polygon points="264.82 336.54 264.82 418.47 260.24 418.47 260.24 343.94 170.59 343.94 170.59 418.47 166.01 418.47 166.01 336.54 264.82 336.54" style="fill:#fff;opacity:0.2"></polygon><polygon points="224.82 336.54 224.82 418.47 220.24 418.47 220.24 343.94 130.59 343.94 130.59 418.47 126.01 418.47 126.01 336.54 224.82 336.54" style="fill:#263238"></polygon><polygon points="224.82 336.54 224.82 418.47 220.24 418.47 220.24 343.94 130.59 343.94 130.59 418.47 126.01 418.47 126.01 336.54 224.82 336.54" style="fill:#fff;opacity:0.4;isolation:isolate"></polygon><polygon points="251.71 305.88 248 336.54 140.93 336.54 137.22 305.88 251.71 305.88" style="fill:#16A34A"></polygon><polygon points="251.71 305.88 251.2 310.12 251.08 311.12 250.59 315.12 250.47 316.12 249.62 323.12 249.5 324.12 248 336.54 140.93 336.54 139.43 324.12 139.31 323.12 138.46 316.12 138.34 315.12 137.85 311.12 137.73 310.12 137.22 305.88 251.71 305.88" style="fill:#fff;opacity:0.4;isolation:isolate"></polygon><g style="opacity:0.2"><polygon points="251.2 310.12 251.08 311.12 137.85 311.12 137.73 310.12 251.2 310.12" style="fill:#fff"></polygon></g><g style="opacity:0.2"><polygon points="250.59 315.12 250.47 316.12 138.46 316.12 138.34 315.12 250.59 315.12" style="fill:#fff"></polygon></g><g style="opacity:0.2"><polygon points="249.62 323.12 249.5 324.12 139.43 324.12 139.31 323.12 249.62 323.12" style="fill:#fff"></polygon></g></g><g id="freepik--plant-1--inject-24"><path d="M103.32,245.13h0a.49.49,0,0,1-.49-.5c0-.81.49-19.69,10.25-26.68a.5.5,0,0,1,.69.12.51.51,0,0,1-.11.7c-9.35,6.69-9.83,25.68-9.83,25.87A.5.5,0,0,1,103.32,245.13Z" style="fill:#263238"></path><path d="M116.21,212.89s2.39-5.39.58-4.9c-3.52,1-4.39,6-4.39,6s.27-4.24-1.22-3.42-2.09,6.16.95,9.51,8.65,2.64,8.79,1.68-2.43-1.55-2.43-1.55,3.89-.78,4.9-3.52-2.24-.64-4.47-.46c0,0,4.06-2.85,3.3-5.31S117.89,211.22,116.21,212.89Z" style="fill:#16A34A"></path><path d="M116.21,212.89s2.39-5.39.58-4.9c-3.52,1-4.39,6-4.39,6s.27-4.24-1.22-3.42-2.09,6.16.95,9.51,8.65,2.64,8.79,1.68-2.43-1.55-2.43-1.55,3.89-.78,4.9-3.52-2.24-.64-4.47-.46c0,0,4.06-2.85,3.3-5.31S117.89,211.22,116.21,212.89Z" style="fill:#fff;opacity:0.6000000000000001;isolation:isolate"></path><path d="M116.83,222c.17-.68-2.15-1.39-2.15-1.39s4.06-.82,4.13-1.84-3.28-.49-3.28-.49,2.41-2.81,1.79-3.6-3.47,1.55-3.47,1.55,1.53-3.07.52-3.41-2.62,3.65-2.62,3.65-.2-1.95-1-1.72c0,0,.4-.35,1.15.47,0,0,1.2-3.57,2.62-3.63s.82,2.84.82,2.84,1.7-2.4,3.33-1.64-1.66,4.72-1.66,4.72,2.28-.22,2.41,1.09-3.75,2.17-3.75,2.17a1.42,1.42,0,0,1,1.2.61C117.24,222,116.83,222,116.83,222Z" style="opacity:0.2;isolation:isolate"></path><path d="M100.81,256a.51.51,0,0,1-.5-.49c0-.19-.48-19.19-9.83-25.88a.5.5,0,1,1,.59-.81c9.76,7,10.23,25.87,10.24,26.67a.5.5,0,0,1-.49.51Z" style="fill:#263238"></path><path d="M87.93,223.73s-2.39-5.4-.59-4.9c3.52,1,4.39,6,4.39,6s-.26-4.24,1.23-3.43,2.08,6.16-.95,9.51-8.66,2.65-8.8,1.68,2.43-1.54,2.43-1.54-3.89-.79-4.9-3.52,2.25-.64,4.47-.46c0,0-4.06-2.86-3.3-5.31S86.24,222.05,87.93,223.73Z" style="fill:#16A34A"></path><path d="M87.93,223.73s-2.39-5.4-.59-4.9c3.52,1,4.39,6,4.39,6s-.26-4.24,1.23-3.43,2.08,6.16-.95,9.51-8.66,2.65-8.8,1.68,2.43-1.54,2.43-1.54-3.89-.79-4.9-3.52,2.25-.64,4.47-.46c0,0-4.06-2.86-3.3-5.31S86.24,222.05,87.93,223.73Z" style="fill:#fff;opacity:0.4;isolation:isolate"></path><path d="M87.3,232.81c-.17-.68,2.15-1.39,2.15-1.39s-4-.81-4.12-1.84,3.28-.49,3.28-.49-2.42-2.81-1.79-3.59,3.46,1.55,3.46,1.55-1.52-3.07-.52-3.41,2.62,3.64,2.62,3.64.21-1.95,1-1.71c0,0-.41-.36-1.16.46,0,0-1.19-3.56-2.61-3.62s-.83,2.83-.83,2.83-1.7-2.39-3.32-1.63,1.65,4.72,1.65,4.72-2.28-.23-2.4,1.09,3.75,2.16,3.75,2.16a1.45,1.45,0,0,0-1.21.62C86.89,232.82,87.3,232.81,87.3,232.81Z" style="opacity:0.2;isolation:isolate"></path><path d="M101.11,250.5h0a.52.52,0,0,1-.45-.55c0-.2,2-20.31-3.4-30.56a.49.49,0,0,1,.21-.67.49.49,0,0,1,.67.2c5.57,10.53,3.61,30.29,3.52,31.13A.51.51,0,0,1,101.11,250.5Z" style="fill:#263238"></path><path d="M97.88,211.61s.32-7,2-5.55c3.25,2.9,1.5,8.75,1.5,8.75s2-4.67,3.13-3-1.06,7.69-6.08,9.65-10.64-1.79-10.28-2.89,3.42-.36,3.42-.36-3.74-2.9-3.36-6.36c.39-3.62,2.74.51,5,1.89,0,0-2.81-5.21-.69-7.43S97,208.93,97.88,211.61Z" style="fill:#16A34A"></path><path d="M97.88,211.61s.32-7,2-5.55c3.25,2.9,1.5,8.75,1.5,8.75s2-4.67,3.13-3-1.06,7.69-6.08,9.65-10.64-1.79-10.28-2.89,3.42-.36,3.42-.36-3.74-2.9-3.36-6.36c.39-3.62,2.74.51,5,1.89,0,0-2.81-5.21-.69-7.43S97,208.93,97.88,211.61Z" style="fill:#fff;opacity:0.2;isolation:isolate"></path><path d="M138.19,255.42a.51.51,0,0,1-.5-.5c0-.19-.48-19.18-9.83-25.87a.51.51,0,0,1-.11-.7.49.49,0,0,1,.69-.12c9.76,7,10.24,25.87,10.25,26.68a.5.5,0,0,1-.49.51Z" style="fill:#263238"></path><path d="M125.3,223.17s-2.39-5.39-.58-4.9c3.52,1,4.39,6,4.39,6s-.27-4.24,1.22-3.42,2.09,6.15-1,9.51-8.65,2.64-8.79,1.68,2.43-1.55,2.43-1.55-3.89-.78-4.9-3.52,2.24-.64,4.47-.46c0,0-4.06-2.85-3.3-5.31S123.62,221.5,125.3,223.17Z" style="fill:#16A34A"></path><path d="M125.3,223.17s-2.39-5.39-.58-4.9c3.52,1,4.39,6,4.39,6s-.27-4.24,1.22-3.42,2.09,6.15-1,9.51-8.65,2.64-8.79,1.68,2.43-1.55,2.43-1.55-3.89-.78-4.9-3.52,2.24-.64,4.47-.46c0,0-4.06-2.85-3.3-5.31S123.62,221.5,125.3,223.17Z" style="fill:#fff;opacity:0.2;isolation:isolate"></path><path d="M124.68,232.26c-.17-.68,2.15-1.39,2.15-1.39s-4.06-.82-4.13-1.84,3.29-.49,3.29-.49-2.42-2.81-1.8-3.6,3.47,1.55,3.47,1.55-1.53-3.07-.52-3.41,2.62,3.65,2.62,3.65.2-1.95,1-1.72c0,0-.4-.35-1.15.47,0,0-1.2-3.57-2.62-3.63s-.82,2.84-.82,2.84-1.7-2.4-3.33-1.64,1.66,4.72,1.66,4.72-2.28-.22-2.41,1.09,3.76,2.17,3.76,2.17a1.43,1.43,0,0,0-1.21.61C124.27,232.27,124.68,232.26,124.68,232.26Z" style="opacity:0.2;isolation:isolate"></path><path d="M150.47,219.41s-1.12-7.87,2.64-10.54.28,3.37.92,9.26c0,0,3.41-10.24,9.05-9.35,3.12.49-5.39,9.84-5.39,9.84s9.65-5.69,11.23-3.31-9.4,7.21-9.4,7.21,10.09-1.28,10.58.5-11.17,2.74-11.17,2.74,9.2,1.39,9.1,3.33-6.43,1.84-10.68-.43c0,0,2.57,3.08,4.84,4S155,233.8,151.76,228a9.64,9.64,0,0,1-4.52-5.45c-2.25-8.55,1.69-9.09,1.86-7.21C149.38,218.52,150.47,219.41,150.47,219.41Z" style="fill:#16A34A"></path><path d="M150.47,219.41s-1.12-7.87,2.64-10.54.28,3.37.92,9.26c0,0,3.41-10.24,9.05-9.35,3.12.49-5.39,9.84-5.39,9.84s9.65-5.69,11.23-3.31-9.4,7.21-9.4,7.21,10.09-1.28,10.58.5-11.17,2.74-11.17,2.74,9.2,1.39,9.1,3.33-6.43,1.84-10.68-.43c0,0,2.57,3.08,4.84,4S155,233.8,151.76,228a9.64,9.64,0,0,1-4.52-5.45c-2.25-8.55,1.69-9.09,1.86-7.21C149.38,218.52,150.47,219.41,150.47,219.41Z" style="fill:#fff;opacity:0.5;isolation:isolate"></path><path d="M151.22,227.64s-1.84-1.39-1.79-2.91,2.72,1,2.72,1-.24-2.62,1-2.52.55,2.72.55,2.72,3.06-.25,3.46.44-3.41,1.26-3.41,1.26,3,1.12,2,2.31S152.11,229.64,151.22,227.64Z" style="fill:#16A34A"></path><path d="M147.32,256.41a.49.49,0,0,1-.49-.46c-.05-.78-1.13-19.1,5.22-28.88a.5.5,0,0,1,.84.54c-6.17,9.51-5.08,28.09-5.07,28.27a.49.49,0,0,1-.46.53Z" style="fill:#263238"></path><path d="M142.12,250.1a.51.51,0,0,1-.39-.18c-.21-.27-5.27-6.61-1.53-20.43a.5.5,0,1,1,1,.26c-3.59,13.27,1.3,19.47,1.35,19.53a.5.5,0,0,1-.07.7A.51.51,0,0,1,142.12,250.1Z" style="fill:#263238"></path><path d="M135.93,224.89s-9-6.87-9.17-11.39,10.84,8.29,10.84,8.29-6.8-11.52-3.87-12.8,7.07,11.33,7.07,11.33-2.84-10.9.3-11,2.18,11.2,2.18,11.2,2-9.21,4.77-8.23-2.57,10.12-2.57,10.12,7.06-4.5,9.34-2.89-7.95,6-7.95,6,8.48,1.36,9.68,3.15-9.84.55-9.84.55,6.64,5.17,6.11,7.17-10.1-6.26-10.1-6.26,5.93,6.37,4.76,7-5-2.73-7-6a3.09,3.09,0,0,1-1.54,2.91c-1.73.9-3.22-.54-3.82-2.05s1.64-3.67,1.64-3.67-5.6,1.09-7-2.67S135.93,224.89,135.93,224.89Z" style="fill:#16A34A"></path><path d="M135.93,224.89s-9-6.87-9.17-11.39,10.84,8.29,10.84,8.29-6.8-11.52-3.87-12.8,7.07,11.33,7.07,11.33-2.84-10.9.3-11,2.18,11.2,2.18,11.2,2-9.21,4.77-8.23-2.57,10.12-2.57,10.12,7.06-4.5,9.34-2.89-7.95,6-7.95,6,8.48,1.36,9.68,3.15-9.84.55-9.84.55,6.64,5.17,6.11,7.17-10.1-6.26-10.1-6.26,5.93,6.37,4.76,7-5-2.73-7-6a3.09,3.09,0,0,1-1.54,2.91c-1.73.9-3.22-.54-3.82-2.05s1.64-3.67,1.64-3.67-5.6,1.09-7-2.67S135.93,224.89,135.93,224.89Z" style="fill:#fff;opacity:0.30000000000000004;isolation:isolate"></path><path d="M137.53,224.61c-.12-2.23,3.67-2.63,6.08-.29a2.65,2.65,0,0,1-2.7,4.51A4.86,4.86,0,0,1,137.53,224.61Z" style="fill:#fff;opacity:0.6000000000000001;isolation:isolate"></path><path d="M177.68,253.83h-.07a.5.5,0,0,1-.42-.57c0-.19,2.43-19-5.79-27.07a.49.49,0,0,1,0-.7.5.5,0,0,1,.71,0c8.58,8.38,6.18,27.12,6.08,27.92A.51.51,0,0,1,177.68,253.83Z" style="fill:#263238"></path><path d="M169.76,220s-1.54-5.7.17-4.94c3.33,1.49,3.43,6.6,3.43,6.6s.38-4.23,1.73-3.2,1.12,6.41-2.39,9.26-8.95,1.3-8.95.33,2.64-1.17,2.64-1.17-3.72-1.36-4.31-4.22,2.32-.29,4.49.23c0,0-3.58-3.44-2.46-5.75S168.35,218.09,169.76,220Z" style="fill:#16A34A"></path><path d="M169.76,220s-1.54-5.7.17-4.94c3.33,1.49,3.43,6.6,3.43,6.6s.38-4.23,1.73-3.2,1.12,6.41-2.39,9.26-8.95,1.3-8.95.33,2.64-1.17,2.64-1.17-3.72-1.36-4.31-4.22,2.32-.29,4.49.23c0,0-3.58-3.44-2.46-5.75S168.35,218.09,169.76,220Z" style="fill:#fff;opacity:0.30000000000000004;isolation:isolate"></path><path d="M167.76,228.89c-.06-.71,2.34-1,2.34-1s-3.88-1.43-3.8-2.45,3.32,0,3.32,0-2-3.14-1.22-3.82,3.19,2.06,3.19,2.06-1.05-3.27,0-3.45,2,4,2,4,.5-1.9,1.24-1.55c0,0-.35-.41-1.21.29,0,0-.64-3.71-2-4s-1.24,2.67-1.24,2.67-1.32-2.62-3-2.11.92,4.91.92,4.91-2.22-.57-2.54.71,3.37,2.71,3.37,2.71a1.42,1.42,0,0,0-1.28.42C167.36,228.83,167.76,228.89,167.76,228.89Z" style="opacity:0.2;isolation:isolate"></path><path d="M183.07,218.37s-1.12-7.88,2.64-10.55.28,3.38.92,9.26c0,0,3.41-10.23,9.05-9.34,3.12.49-5.39,9.84-5.39,9.84s9.64-5.69,11.23-3.32-9.4,7.21-9.4,7.21,10.09-1.27,10.58.51-11.17,2.74-11.17,2.74,9.2,1.39,9.1,3.33-6.43,1.84-10.68-.43c0,0,2.57,3.08,4.84,4s-7.15,1.18-10.43-4.66a9.68,9.68,0,0,1-4.53-5.45c-2.24-8.54,1.7-9.08,1.86-7.21C182,217.48,183.07,218.37,183.07,218.37Z" style="fill:#16A34A"></path><path d="M183.07,218.37s-1.12-7.88,2.64-10.55.28,3.38.92,9.26c0,0,3.41-10.23,9.05-9.34,3.12.49-5.39,9.84-5.39,9.84s9.64-5.69,11.23-3.32-9.4,7.21-9.4,7.21,10.09-1.27,10.58.51-11.17,2.74-11.17,2.74,9.2,1.39,9.1,3.33-6.43,1.84-10.68-.43c0,0,2.57,3.08,4.84,4s-7.15,1.18-10.43-4.66a9.68,9.68,0,0,1-4.53-5.45c-2.24-8.54,1.7-9.08,1.86-7.21C182,217.48,183.07,218.37,183.07,218.37Z" style="fill:#fff;opacity:0.6000000000000001;isolation:isolate"></path><path d="M183.81,226.6s-1.83-1.4-1.78-2.91,2.72,1,2.72,1-.24-2.62,1-2.52.55,2.72.55,2.72,3.06-.25,3.46.44-3.42,1.26-3.42,1.26,3,1.11,2,2.3S184.7,228.6,183.81,226.6Z" style="fill:#16A34A"></path><path d="M179.92,255.37a.5.5,0,0,1-.5-.47c0-.77-1.12-19.09,5.23-28.88a.5.5,0,0,1,.84.55c-6.17,9.5-5.08,28.08-5.07,28.27a.5.5,0,0,1-.47.53Z" style="fill:#263238"></path><path d="M182.45,249.67a.5.5,0,0,1-.5-.5c0-.34,0-8.45,11.56-16.91a.5.5,0,0,1,.7.1.51.51,0,0,1-.11.7c-11.1,8.13-11.15,16-11.15,16.1a.51.51,0,0,1-.49.51Z" style="fill:#263238"></path><path d="M193,226s-2.75-11-.06-14.63,3.3,13.24,3.3,13.24,1.88-13.24,5-12.41-1.55,13.26-1.55,13.26,4.58-10.29,7.14-8.44-5.3,10.11-5.3,10.11,7.32-5.95,8.86-3.45-8.32,6.3-8.32,6.3,8.32.89,9.1,3.57-9.93-.3-9.93-.3,5.76,6.36,5.59,8.5-8-5.7-8-5.7,2,8.17.3,9.41-4-11.2-4-11.2.66,8.68-.65,8.44-2.18-5.23-1.76-9a3.09,3.09,0,0,1-3,1.31c-1.92-.38-2.18-2.43-1.7-4s3.56-1.84,3.56-1.84-5.05-2.65-3.77-6.44S193,226,193,226Z" style="fill:#16A34A"></path><path d="M193,226s-2.75-11-.06-14.63,3.3,13.24,3.3,13.24,1.88-13.24,5-12.41-1.55,13.26-1.55,13.26,4.58-10.29,7.14-8.44-5.3,10.11-5.3,10.11,7.32-5.95,8.86-3.45-8.32,6.3-8.32,6.3,8.32.89,9.1,3.57-9.93-.3-9.93-.3,5.76,6.36,5.59,8.5-8-5.7-8-5.7,2,8.17.3,9.41-4-11.2-4-11.2.66,8.68-.65,8.44-2.18-5.23-1.76-9a3.09,3.09,0,0,1-3,1.31c-1.92-.38-2.18-2.43-1.7-4s3.56-1.84,3.56-1.84-5.05-2.65-3.77-6.44S193,226,193,226Z" style="fill:#fff;opacity:0.4;isolation:isolate"></path><path d="M194.47,226.78c1.29-1.81,4.5.24,4.93,3.57a2.65,2.65,0,0,1-4.93,1.84A4.84,4.84,0,0,1,194.47,226.78Z" style="fill:#fff;opacity:0.6000000000000001;isolation:isolate"></path><polygon points="215.13 270.54 215.13 418.47 210.55 418.47 210.55 277.94 120.9 277.94 120.9 418.47 116.32 418.47 116.32 270.54 215.13 270.54" style="fill:#263238"></polygon><polygon points="215.13 270.54 215.13 418.47 210.55 418.47 210.55 277.94 120.9 277.94 120.9 418.47 116.32 418.47 116.32 270.54 215.13 270.54" style="fill:#fff;opacity:0.30000000000000004"></polygon><polygon points="175.13 270.54 175.13 418.47 170.55 418.47 170.55 277.94 80.9 277.94 80.9 418.47 76.32 418.47 76.32 270.54 175.13 270.54" style="fill:#263238"></polygon><polygon points="175.13 270.54 175.13 418.47 170.55 418.47 170.55 277.94 80.9 277.94 80.9 418.47 76.32 418.47 76.32 270.54 175.13 270.54" style="fill:#fff;opacity:0.6000000000000001;isolation:isolate"></polygon><polygon points="199.44 239.88 198.86 244.66 198.74 245.67 195.73 270.54 167.66 270.54 164.61 245.34 164.48 244.26 163.95 239.88 199.44 239.88" style="fill:#16A34A"></polygon><g style="opacity:0.6000000000000001;isolation:isolate"><path d="M198.86,244.66l-.12,1c-1.7-.61-2.52.36-3.6,1.65-.87,1-1.85,2.2-3.43,2.34-2.14.19-3.3-1-4.41-2.08a6.86,6.86,0,0,0-3-2.08c-1.45-.4-2.84.73-4.31,1.92s-2.79,2.28-4.42,2.28a3.88,3.88,0,0,1-.48,0c-1.87-.26-2.94-1.48-4-2.65a6,6,0,0,0-3.39-2.42,4.36,4.36,0,0,0-3.09.75l-.13-1.08a5.15,5.15,0,0,1,3.41-.65,7,7,0,0,1,4,2.74c1,1.08,1.85,2.11,3.35,2.32s2.73-.88,4.13-2c1.61-1.31,3.26-2.66,5.21-2.11a7.78,7.78,0,0,1,3.47,2.34c1.08,1.09,1.94,1.94,3.6,1.79,1.18-.11,1.95-1,2.76-2C195.45,245.4,196.65,244,198.86,244.66Z" style="fill:#fff"></path></g><polygon points="119.44 239.88 118.53 247.39 118.4 248.45 115.73 270.54 87.66 270.54 84.75 246.5 84.62 245.44 83.95 239.88 119.44 239.88" style="fill:#16A34A"></polygon><path d="M116.41,246.19c.69.42,1.4.84,2.12,1.2l-.13,1.06c-.86-.41-1.69-.91-2.5-1.4-1.81-1.09-3.53-2.14-5.45-2.06a5.39,5.39,0,0,0-3.4,1.69,7,7,0,0,1-5.39,2.14,12.1,12.1,0,0,1-5.61-1.8,16.92,16.92,0,0,0-4.85-1.91c-2-.43-4.4.36-6.45,1.39l-.13-1.06c2.14-1,4.62-1.77,6.79-1.3a18.16,18.16,0,0,1,5.12,2,11.1,11.1,0,0,0,5.19,1.68,6.05,6.05,0,0,0,4.68-1.9,6.34,6.34,0,0,1,4-1.93C112.64,243.9,114.56,245.07,116.41,246.19Z" style="fill:#fff;opacity:0.6000000000000001"></path><polygon points="119.44 239.88 118.53 247.39 118.4 248.45 115.73 270.54 87.66 270.54 84.75 246.5 84.62 245.44 83.95 239.88 119.44 239.88" style="opacity:0.30000000000000004"></polygon><polygon points="159.44 239.88 158.75 245.55 158.58 246.96 155.73 270.54 127.66 270.54 124.8 246.87 124.64 245.56 123.95 239.88 159.44 239.88" style="fill:#16A34A"></polygon><path d="M158.75,245.55l-.17,1.41a8.24,8.24,0,0,1-5.75,1.72,4.7,4.7,0,0,1-3.69-2.11,3.64,3.64,0,0,0-3.15-1.71,4.69,4.69,0,0,0-4,1.57,7,7,0,0,1-5.09,2.12c-3,0-4.79-1.63-6.19-2.94-.93-.87-1.67-1.56-2.52-1.57h0c-.86,0-1.8,1-2.8,2.15l-.61.68-.16-1.31,0,0c1.16-1.29,2.25-2.51,3.57-2.48s2.18.9,3.18,1.84c1.34,1.25,2.86,2.67,5.51,2.67a6,6,0,0,0,4.44-1.88,5.66,5.66,0,0,1,4.71-1.81,4.64,4.64,0,0,1,3.86,2.1,3.69,3.69,0,0,0,3,1.73C155.3,248,157.43,246.66,158.75,245.55Z" style="fill:#fff;opacity:0.6000000000000001"></path><polygon points="159.44 239.88 158.75 245.55 158.58 246.96 155.73 270.54 127.66 270.54 124.8 246.87 124.64 245.56 123.95 239.88 159.44 239.88" style="opacity:0.2"></polygon></g></svg>
