<svg xmlns="http://www.w3.org/2000/svg" viewBox="0 0 500 500"><g id="freepik--background-simple--inject-109"><path d="M330.18,61.3S257.45,35.43,186.05,76.61,78.62,199.53,47.69,265,34.56,397.08,89.06,427.45s91.56-14.4,168-16.58,97,8.75,160.47-34.44,74.92-145.2,24.87-220.68S330.18,61.3,330.18,61.3Z" style="fill:#16A34A"></path><path d="M330.18,61.3S257.45,35.43,186.05,76.61,78.62,199.53,47.69,265,34.56,397.08,89.06,427.45s91.56-14.4,168-16.58,97,8.75,160.47-34.44,74.92-145.2,24.87-220.68S330.18,61.3,330.18,61.3Z" style="fill:#fff;opacity:0.7000000000000001"></path></g><g id="freepik--Window--inject-109"><polygon points="118.68 82.89 39.83 82.89 38.79 93.73 118.68 93.73 118.68 82.89" style="fill:none;stroke:#263238;stroke-miterlimit:10"></polygon><polygon points="118.68 93.73 39.83 93.73 38.79 104.58 118.68 104.58 118.68 93.73" style="fill:none;stroke:#263238;stroke-miterlimit:10"></polygon><polygon points="118.68 104.58 39.83 104.58 38.79 115.42 118.68 115.42 118.68 104.58" style="fill:none;stroke:#263238;stroke-miterlimit:10"></polygon><polygon points="118.68 115.42 39.83 115.42 38.79 126.26 118.68 126.26 118.68 115.42" style="fill:none;stroke:#263238;stroke-miterlimit:10"></polygon><polygon points="118.68 126.26 39.83 126.26 38.79 137.1 118.68 137.1 118.68 126.26" style="fill:none;stroke:#263238;stroke-miterlimit:10"></polygon><polygon points="118.68 137.1 39.83 137.1 38.79 147.94 118.68 147.94 118.68 137.1" style="fill:none;stroke:#263238;stroke-miterlimit:10"></polygon><polygon points="118.68 147.94 39.83 147.94 38.79 158.78 118.68 158.78 118.68 147.94" style="fill:none;stroke:#263238;stroke-miterlimit:10"></polygon><polygon points="118.68 158.78 39.83 158.78 38.79 169.62 118.68 169.62 118.68 158.78" style="fill:none;stroke:#263238;stroke-miterlimit:10"></polygon><polygon points="118.68 169.62 39.83 169.62 38.79 180.46 118.68 180.46 118.68 169.62" style="fill:none;stroke:#263238;stroke-miterlimit:10"></polygon><polygon points="118.68 180.46 39.83 180.46 38.79 191.3 118.68 191.3 118.68 180.46" style="fill:none;stroke:#263238;stroke-miterlimit:10"></polygon><polygon points="118.68 191.3 39.83 191.3 38.79 202.14 118.68 202.14 118.68 191.3" style="fill:none;stroke:#263238;stroke-miterlimit:10"></polygon><polygon points="118.68 202.14 39.83 202.14 38.79 212.99 118.68 212.99 118.68 202.14" style="fill:none;stroke:#263238;stroke-miterlimit:10"></polygon><polygon points="118.68 212.99 39.83 212.99 38.79 223.83 118.68 223.83 118.68 212.99" style="fill:none;stroke:#263238;stroke-miterlimit:10"></polygon><polygon points="118.68 223.83 39.83 223.83 38.79 234.67 118.68 234.67 118.68 223.83" style="fill:none;stroke:#263238;stroke-miterlimit:10"></polygon><polygon points="118.68 234.67 39.83 234.67 38.79 245.51 118.68 245.51 118.68 234.67" style="fill:none;stroke:#263238;stroke-miterlimit:10"></polygon><polygon points="199.74 82.89 120.89 82.89 119.85 93.73 199.74 93.73 199.74 82.89" style="fill:none;stroke:#263238;stroke-miterlimit:10"></polygon><polygon points="199.74 93.73 120.89 93.73 119.85 104.58 199.74 104.58 199.74 93.73" style="fill:none;stroke:#263238;stroke-miterlimit:10"></polygon><polygon points="199.74 104.58 120.89 104.58 119.85 115.42 199.74 115.42 199.74 104.58" style="fill:none;stroke:#263238;stroke-miterlimit:10"></polygon><polygon points="199.74 115.42 120.89 115.42 119.85 126.26 199.74 126.26 199.74 115.42" style="fill:none;stroke:#263238;stroke-miterlimit:10"></polygon><polygon points="199.74 126.26 120.89 126.26 119.85 137.1 199.74 137.1 199.74 126.26" style="fill:none;stroke:#263238;stroke-miterlimit:10"></polygon><polygon points="199.74 137.1 120.89 137.1 119.85 147.94 199.74 147.94 199.74 137.1" style="fill:none;stroke:#263238;stroke-miterlimit:10"></polygon><polygon points="199.74 147.94 120.89 147.94 119.85 158.78 199.74 158.78 199.74 147.94" style="fill:none;stroke:#263238;stroke-miterlimit:10"></polygon><polygon points="199.74 158.78 120.89 158.78 119.85 169.62 199.74 169.62 199.74 158.78" style="fill:none;stroke:#263238;stroke-miterlimit:10"></polygon><polygon points="199.74 169.62 120.89 169.62 119.85 180.46 199.74 180.46 199.74 169.62" style="fill:none;stroke:#263238;stroke-miterlimit:10"></polygon><polygon points="199.74 180.46 120.89 180.46 119.85 191.3 199.74 191.3 199.74 180.46" style="fill:none;stroke:#263238;stroke-miterlimit:10"></polygon><polygon points="199.74 191.3 120.89 191.3 119.85 202.14 199.74 202.14 199.74 191.3" style="fill:none;stroke:#263238;stroke-miterlimit:10"></polygon><polygon points="199.74 202.14 120.89 202.14 119.85 212.99 199.74 212.99 199.74 202.14" style="fill:none;stroke:#263238;stroke-miterlimit:10"></polygon><polygon points="199.74 212.99 120.89 212.99 119.85 223.83 199.74 223.83 199.74 212.99" style="fill:none;stroke:#263238;stroke-miterlimit:10"></polygon><polygon points="199.74 223.83 120.89 223.83 119.85 234.67 199.74 234.67 199.74 223.83" style="fill:none;stroke:#263238;stroke-miterlimit:10"></polygon><polygon points="199.74 234.67 120.89 234.67 119.85 245.51 199.74 245.51 199.74 234.67" style="fill:none;stroke:#263238;stroke-miterlimit:10"></polygon><rect x="36.94" y="74.5" width="166.75" height="8.18" style="fill:#263238;stroke:#263238;stroke-miterlimit:10"></rect><line x1="203.69" y1="82.68" x2="203.69" y2="226.71" style="fill:none;stroke:#263238;stroke-miterlimit:10"></line><line x1="201.87" y1="82.91" x2="201.87" y2="181.73" style="fill:none;stroke:#263238;stroke-miterlimit:10"></line><rect x="202.63" y="226.39" width="2.24" height="3.67" style="fill:#263238;stroke:#263238;stroke-miterlimit:10"></rect><rect x="200.61" y="180.94" width="2.24" height="3.67" style="fill:#263238;stroke:#263238;stroke-miterlimit:10"></rect></g><g id="freepik--Picture--inject-109"><rect x="320.2" y="73.38" width="122.14" height="157.05" style="fill:none;stroke:#263238;stroke-miterlimit:10"></rect><rect x="324.63" y="79.07" width="113.28" height="145.66" style="fill:none;stroke:#263238;stroke-miterlimit:10"></rect><path d="M332.24,79.67s-4.12,27,21.51,44.39,69.09,9.15,83.73,33.86" style="fill:none;stroke:#263238;stroke-miterlimit:10"></path><path d="M324.92,171.18s39.35-32.86,54-9.15c9.61,15.56-34.77,43-34.77,62.69" style="fill:none;stroke:#263238;stroke-miterlimit:10"></path><path d="M384,79.67s16.47,25.63,54,18.76" style="fill:none;stroke:#263238;stroke-miterlimit:10"></path><circle cx="373.88" cy="106.67" r="15.1" style="fill:none;stroke:#263238;stroke-miterlimit:10"></circle><circle cx="419.41" cy="127.03" r="7.09" style="fill:none;stroke:#263238;stroke-miterlimit:10"></circle><path d="M399.41,224.82a29.29,29.29,0,0,1,38.12-44.43" style="fill:none;stroke:#263238;stroke-miterlimit:10"></path></g><g id="freepik--Couch--inject-109"><path d="M199.15,364.55c.5-47-15.5-81.5-15.5-81.5H32.43l.72,1.19,6,80.58H175.65v45.31h65V364.55Z" style="fill:#525252;stroke:#263238;stroke-linecap:round;stroke-linejoin:round"></path><path d="M90.93,444.87H85.71a1.35,1.35,0,0,1-1.34-1.27l-2.52-37.46H94.78L92.26,443.6A1.33,1.33,0,0,1,90.93,444.87Z" style="fill:#fff;stroke:#263238;stroke-linecap:round;stroke-linejoin:round"></path><path d="M263.5,444.87h-5.22A1.34,1.34,0,0,1,257,443.6l-2.52-37.46h12.93l-2.52,37.46A1.35,1.35,0,0,1,263.5,444.87Z" style="fill:#fff;stroke:#263238;stroke-linecap:round;stroke-linejoin:round"></path><path d="M35.61,444.87H30.39a1.35,1.35,0,0,1-1.34-1.27l-2.52-37.46H39.46L36.94,443.6A1.33,1.33,0,0,1,35.61,444.87Z" style="fill:#fff;stroke:#263238;stroke-linecap:round;stroke-linejoin:round"></path><path d="M208.18,444.87H203a1.34,1.34,0,0,1-1.34-1.27l-2.52-37.46H212l-2.52,37.46A1.35,1.35,0,0,1,208.18,444.87Z" style="fill:#fff;stroke:#263238;stroke-linecap:round;stroke-linejoin:round"></path><path d="M89.43,410.13V364.55H47.93c.5-47-15.5-81.5-15.5-81.5H27.16a2.73,2.73,0,0,0-2.73,2.74V410.13Z" style="fill:#263238;stroke:#263238;stroke-linecap:round;stroke-linejoin:round"></path><path d="M89.43,364.55H264.85a6.42,6.42,0,0,1,6.42,6.42v39.08a0,0,0,0,1,0,0H89.43a0,0,0,0,1,0,0v-45.5A0,0,0,0,1,89.43,364.55Z" style="fill:#525252;stroke:#263238;stroke-linecap:round;stroke-linejoin:round"></path></g><g id="freepik--Clock--inject-109"><circle cx="267" cy="110.33" r="38.5" style="fill:none;stroke:#263238;stroke-linecap:round;stroke-miterlimit:10"></circle><circle cx="267" cy="110.33" r="34.76" style="fill:none;stroke:#263238;stroke-linecap:round;stroke-miterlimit:10"></circle><polyline points="280.79 114.61 267 110.33 283.33 86.66" style="fill:none;stroke:#263238;stroke-linecap:round;stroke-miterlimit:10"></polyline><circle cx="267" cy="110.33" r="1.95" style="fill:#263238;stroke:#263238;stroke-miterlimit:10"></circle><circle cx="253.55" cy="92.63" r="7.05" style="fill:none;stroke:#263238;stroke-linecap:round;stroke-miterlimit:10"></circle><path d="M256.57,104.88a1.51,1.51,0,1,1-1.51-1.51A1.52,1.52,0,0,1,256.57,104.88Z" style="fill:none;stroke:#263238;stroke-linecap:round;stroke-miterlimit:10"></path></g><g id="freepik--Furniture--inject-109"><rect x="305.09" y="265.73" width="169.23" height="6.38" transform="translate(779.42 537.84) rotate(180)" style="fill:none;stroke:#263238;stroke-linecap:round;stroke-linejoin:round"></rect><rect x="312.94" y="272.29" width="153.54" height="172.32" transform="translate(779.42 716.9) rotate(180)" style="fill:none;stroke:#263238;stroke-linecap:round;stroke-linejoin:round"></rect><rect x="318.46" y="280.31" width="142.67" height="37.39" transform="translate(779.59 598.01) rotate(180)" style="fill:none;stroke:#263238;stroke-linecap:round;stroke-linejoin:round"></rect><rect x="382.91" y="295.56" width="14.27" height="6.89" transform="translate(780.09 598.01) rotate(180)" style="fill:#263238;stroke:#263238;stroke-linecap:round;stroke-linejoin:round"></rect><rect x="318.46" y="327.54" width="142.67" height="37.39" transform="translate(779.59 692.46) rotate(180)" style="fill:none;stroke:#263238;stroke-linecap:round;stroke-linejoin:round"></rect><rect x="382.91" y="342.79" width="14.27" height="6.89" transform="translate(780.09 692.46) rotate(180)" style="fill:#263238;stroke:#263238;stroke-linecap:round;stroke-linejoin:round"></rect><rect x="318.46" y="374.98" width="142.67" height="37.39" transform="translate(779.59 787.36) rotate(180)" style="fill:none;stroke:#263238;stroke-linecap:round;stroke-linejoin:round"></rect><rect x="382.91" y="390.23" width="14.27" height="6.89" transform="translate(780.09 787.36) rotate(180)" style="fill:#263238;stroke:#263238;stroke-linecap:round;stroke-linejoin:round"></rect><path d="M433.65,187.56a332.58,332.58,0,0,1,4.54,53" style="fill:none;stroke:#263238;stroke-linecap:round;stroke-linejoin:round"></path><path d="M451.74,188.23s-11.22,19.49-12.28,50.42" style="fill:none;stroke:#263238;stroke-linecap:round;stroke-linejoin:round"></path><path d="M460,204.54a142.18,142.18,0,0,0-21.82,39.83" style="fill:none;stroke:#263238;stroke-linecap:round;stroke-linejoin:round"></path><path d="M452.8,220.64s-11.65,11.44-14.4,26.48" style="fill:none;stroke:#263238;stroke-linecap:round;stroke-linejoin:round"></path><path d="M424.7,219.64s11.66,4.81,13.91,29.17" style="fill:none;stroke:#263238;stroke-linecap:round;stroke-linejoin:round"></path><path d="M438.61,241.4c-2.75-23.94-15.42-35-15.42-35" style="fill:none;stroke:#263238;stroke-linecap:round;stroke-linejoin:round"></path><line x1="432.09" y1="204.5" x2="438.19" y2="244.37" style="fill:none;stroke:#263238;stroke-linecap:round;stroke-linejoin:round"></line><path d="M420.18,194.59s18.14,28.06,19.49,50.62" style="fill:none;stroke:#263238;stroke-linecap:round;stroke-linejoin:round"></path><path d="M429.44,206.41c0,.22-.44.43-.47.65s.36.52.31.74-.52.32-.6.53.24.58.14.79-.58.19-.7.38.09.62-.05.8-.61.06-.77.22,0,.63-.21.77-.61-.08-.8,0-.18.6-.39.7-.57-.21-.79-.13-.31.54-.53.59-.51-.33-.74-.31-.42.47-.65.47-.43-.44-.65-.47-.52.36-.74.31-.32-.52-.53-.59-.58.23-.79.13-.19-.58-.38-.7-.62.1-.8,0-.06-.61-.22-.77-.63-.05-.77-.22.08-.61,0-.8-.6-.18-.7-.39.21-.57.13-.78-.54-.31-.59-.54.33-.51.3-.73-.46-.43-.46-.65.44-.43.46-.66-.35-.52-.3-.73.52-.32.59-.54-.23-.58-.13-.78.58-.2.7-.39-.1-.62,0-.8.61-.06.77-.22,0-.63.22-.77.61.08.8,0,.18-.6.38-.7.58.21.79.14.31-.55.53-.6.52.33.74.31.42-.47.65-.47.43.44.65.47.52-.36.74-.31.32.52.53.6.59-.24.79-.14.2.58.39.7.62-.1.8,0,.06.61.22.77.62.05.76.22-.07.61.05.8.6.18.7.39-.21.57-.14.78.55.31.6.54-.33.51-.31.73S429.44,206.18,429.44,206.41Z" style="fill:#fff"></path><path d="M429.44,206.41c0,.22-.44.43-.47.65s.36.52.31.74-.52.32-.6.53.24.58.14.79-.58.19-.7.38.09.62-.05.8-.61.06-.77.22,0,.63-.21.77-.61-.08-.8,0-.18.6-.39.7-.57-.21-.79-.13-.31.54-.53.59-.51-.33-.74-.31-.42.47-.65.47-.43-.44-.65-.47-.52.36-.74.31-.32-.52-.53-.59-.58.23-.79.13-.19-.58-.38-.7-.62.1-.8,0-.06-.61-.22-.77-.63-.05-.77-.22.08-.61,0-.8-.6-.18-.7-.39.21-.57.13-.78-.54-.31-.59-.54.33-.51.3-.73-.46-.43-.46-.65.44-.43.46-.66-.35-.52-.3-.73.52-.32.59-.54-.23-.58-.13-.78.58-.2.7-.39-.1-.62,0-.8.61-.06.77-.22,0-.63.22-.77.61.08.8,0,.18-.6.38-.7.58.21.79.14.31-.55.53-.6.52.33.74.31.42-.47.65-.47.43.44.65.47.52-.36.74-.31.32.52.53.6.59-.24.79-.14.2.58.39.7.62-.1.8,0,.06.61.22.77.62.05.76.22-.07.61.05.8.6.18.7.39-.21.57-.14.78.55.31.6.54-.33.51-.31.73S429.44,206.18,429.44,206.41Z" style="fill:none;stroke:#263238;stroke-linecap:round;stroke-linejoin:round"></path><path d="M425.51,206.41a2.32,2.32,0,1,1-2.32-2.32A2.32,2.32,0,0,1,425.51,206.41Z" style="fill:#16A34A"></path><path d="M432.17,219.64c0,.27-.53.51-.56.78s.43.62.37.88-.63.38-.72.64.28.7.17.94-.7.23-.84.46.11.75,0,1-.73.07-.92.26-.06.75-.27.92-.72-.09-1,.05-.22.72-.46.84-.69-.25-.95-.16-.37.65-.63.71-.61-.4-.88-.37-.51.56-.78.56-.52-.53-.78-.56-.63.43-.89.37-.38-.62-.63-.71-.7.28-.95.16-.23-.7-.46-.84-.74.12-.95-.05-.07-.73-.26-.92-.76-.05-.92-.26.09-.73-.06-1-.72-.22-.83-.46.25-.69.16-.94-.66-.37-.72-.64.4-.61.37-.88-.55-.51-.55-.78.52-.52.55-.78-.43-.62-.37-.88.63-.39.72-.64-.28-.7-.16-.94.69-.24.83-.46-.11-.75.06-1,.73-.07.92-.26.05-.75.26-.92.73.09,1-.05.21-.73.45-.84.69.25.95.16.37-.66.63-.72.62.4.89.37.5-.55.78-.55.51.52.78.55.62-.42.88-.37.38.63.64.72.7-.28.94-.16.23.69.46.84.74-.12,1,.05.08.73.27.92.75.05.92.26-.1.73,0,1,.72.21.84.46-.25.68-.17.94.66.37.72.64-.4.61-.37.88S432.17,219.37,432.17,219.64Z" style="fill:#fff"></path><path d="M432.17,219.64c0,.27-.53.51-.56.78s.43.62.37.88-.63.38-.72.64.28.7.17.94-.7.23-.84.46.11.75,0,1-.73.07-.92.26-.06.75-.27.92-.72-.09-1,.05-.22.72-.46.84-.69-.25-.95-.16-.37.65-.63.71-.61-.4-.88-.37-.51.56-.78.56-.52-.53-.78-.56-.63.43-.89.37-.38-.62-.63-.71-.7.28-.95.16-.23-.7-.46-.84-.74.12-.95-.05-.07-.73-.26-.92-.76-.05-.92-.26.09-.73-.06-1-.72-.22-.83-.46.25-.69.16-.94-.66-.37-.72-.64.4-.61.37-.88-.55-.51-.55-.78.52-.52.55-.78-.43-.62-.37-.88.63-.39.72-.64-.28-.7-.16-.94.69-.24.83-.46-.11-.75.06-1,.73-.07.92-.26.05-.75.26-.92.73.09,1-.05.21-.73.45-.84.69.25.95.16.37-.66.63-.72.62.4.89.37.5-.55.78-.55.51.52.78.55.62-.42.88-.37.38.63.64.72.7-.28.94-.16.23.69.46.84.74-.12,1,.05.08.73.27.92.75.05.92.26-.1.73,0,1,.72.21.84.46-.25.68-.17.94.66.37.72.64-.4.61-.37.88S432.17,219.37,432.17,219.64Z" style="fill:none;stroke:#263238;stroke-linecap:round;stroke-linejoin:round"></path><circle cx="424.7" cy="219.64" r="2.77" style="fill:#16A34A"></circle><path d="M460.27,220.64c0,.27-.52.52-.55.78s.43.62.37.88-.63.39-.72.64.28.7.16.94-.69.24-.83.46.11.75-.06,1-.73.07-.92.26-.05.75-.26.92-.73-.09-.95.05-.22.73-.46.84-.69-.25-.95-.16-.37.66-.63.72-.62-.4-.89-.37-.5.55-.78.55-.51-.52-.78-.55-.62.42-.88.37-.38-.63-.64-.72-.7.28-.94.16-.23-.69-.46-.84-.74.12-1-.05-.08-.73-.27-.92-.75-.05-.92-.26.1-.73,0-1-.72-.21-.84-.46.25-.68.17-.94-.66-.37-.72-.64.4-.61.37-.88-.56-.51-.56-.78.53-.51.56-.78-.43-.62-.37-.88.63-.38.72-.64-.28-.7-.17-.94.7-.23.84-.46-.11-.75,0-1,.73-.07.92-.26.06-.75.27-.92.72.09,1-.05.22-.72.46-.84.69.25.95.16.37-.65.63-.71.61.4.88.37.51-.56.78-.56.52.53.78.56.63-.43.89-.37.38.62.63.71.7-.28.95-.16.23.7.46.84.74-.12.95.05.07.73.26.92.76.05.92.26-.09.73.06,1,.72.22.84.46-.26.69-.17.94.66.37.72.64-.4.61-.37.88S460.27,220.37,460.27,220.64Z" style="fill:#fff"></path><path d="M460.27,220.64c0,.27-.52.52-.55.78s.43.62.37.88-.63.39-.72.64.28.7.16.94-.69.24-.83.46.11.75-.06,1-.73.07-.92.26-.05.75-.26.92-.73-.09-.95.05-.22.73-.46.84-.69-.25-.95-.16-.37.66-.63.72-.62-.4-.89-.37-.5.55-.78.55-.51-.52-.78-.55-.62.42-.88.37-.38-.63-.64-.72-.7.28-.94.16-.23-.69-.46-.84-.74.12-1-.05-.08-.73-.27-.92-.75-.05-.92-.26.1-.73,0-1-.72-.21-.84-.46.25-.68.17-.94-.66-.37-.72-.64.4-.61.37-.88-.56-.51-.56-.78.53-.51.56-.78-.43-.62-.37-.88.63-.38.72-.64-.28-.7-.17-.94.7-.23.84-.46-.11-.75,0-1,.73-.07.92-.26.06-.75.27-.92.72.09,1-.05.22-.72.46-.84.69.25.95.16.37-.65.63-.71.61.4.88.37.51-.56.78-.56.52.53.78.56.63-.43.89-.37.38.62.63.71.7-.28.95-.16.23.7.46.84.74-.12.95.05.07.73.26.92.76.05.92.26-.09.73.06,1,.72.22.84.46-.26.69-.17.94.66.37.72.64-.4.61-.37.88S460.27,220.37,460.27,220.64Z" style="fill:none;stroke:#263238;stroke-linecap:round;stroke-linejoin:round"></path><circle cx="452.8" cy="220.64" r="2.77" style="fill:#16A34A"></circle><path d="M448.62,213c0,.27-.52.51-.55.78s.43.62.37.88-.63.38-.72.64.28.7.16.94-.69.23-.83.46.11.74-.06.95-.73.08-.92.27-.05.75-.26.92-.73-.1-.95,0-.22.72-.46.84-.69-.25-.95-.17-.37.66-.63.72-.62-.4-.89-.37-.5.56-.78.56-.51-.53-.78-.56-.62.43-.88.37-.38-.63-.64-.72-.7.28-.94.17-.23-.7-.46-.84-.74.11-.95,0-.08-.73-.27-.92-.75-.06-.92-.27.1-.72-.05-.95-.72-.22-.84-.46.25-.69.17-.95-.66-.37-.72-.63.4-.61.37-.88-.56-.51-.56-.78.53-.52.56-.78-.43-.63-.37-.89.63-.38.72-.63-.28-.7-.17-.95.7-.23.84-.46-.11-.74.05-.95.73-.07.92-.26.06-.76.27-.92.72.09.95-.06.22-.72.46-.84.69.26.95.17.37-.66.63-.72.61.4.88.37.51-.55.78-.55.52.52.78.55.63-.43.89-.37.38.63.63.72.7-.28.95-.16.23.69.46.83.74-.11.95.06.07.73.26.92.76.05.92.26-.09.73.06.95.72.22.84.46-.26.69-.17.95.66.37.72.63-.4.62-.37.89S448.62,212.74,448.62,213Z" style="fill:#fff"></path><path d="M448.62,213c0,.27-.52.51-.55.78s.43.62.37.88-.63.38-.72.64.28.7.16.94-.69.23-.83.46.11.74-.06.95-.73.08-.92.27-.05.75-.26.92-.73-.1-.95,0-.22.72-.46.84-.69-.25-.95-.17-.37.66-.63.72-.62-.4-.89-.37-.5.56-.78.56-.51-.53-.78-.56-.62.43-.88.37-.38-.63-.64-.72-.7.28-.94.17-.23-.7-.46-.84-.74.11-.95,0-.08-.73-.27-.92-.75-.06-.92-.27.1-.72-.05-.95-.72-.22-.84-.46.25-.69.17-.95-.66-.37-.72-.63.4-.61.37-.88-.56-.51-.56-.78.53-.52.56-.78-.43-.63-.37-.89.63-.38.72-.63-.28-.7-.17-.95.7-.23.84-.46-.11-.74.05-.95.73-.07.92-.26.06-.76.27-.92.72.09.95-.06.22-.72.46-.84.69.26.95.17.37-.66.63-.72.61.4.88.37.51-.55.78-.55.52.52.78.55.63-.43.89-.37.38.63.63.72.7-.28.95-.16.23.69.46.83.74-.11.95.06.07.73.26.92.76.05.92.26-.09.73.06.95.72.22.84.46-.26.69-.17.95.66.37.72.63-.4.62-.37.89S448.62,212.74,448.62,213Z" style="fill:none;stroke:#263238;stroke-linecap:round;stroke-linejoin:round"></path><path d="M443.92,213a2.77,2.77,0,1,1-2.77-2.77A2.76,2.76,0,0,1,443.92,213Z" style="fill:#16A34A"></path><path d="M428.08,195.22c0,.28-.53.52-.56.78s.43.62.37.89-.63.38-.71.63.27.7.16.95-.7.23-.84.46.11.74-.05.95-.73.07-.92.26,0,.75-.27.92-.72-.09-.95.06-.22.72-.46.83-.69-.25-.94-.16-.38.66-.64.72-.61-.4-.88-.37-.51.55-.78.55-.52-.52-.78-.55-.62.43-.89.37-.38-.63-.63-.72-.7.28-.95.16-.23-.69-.46-.84-.74.12-.95-.05-.07-.73-.26-.92-.75,0-.92-.26.09-.73,0-1-.73-.21-.84-.46.25-.68.16-.94-.66-.37-.72-.63.4-.62.37-.89-.55-.5-.55-.78.52-.51.55-.78-.43-.62-.37-.88.63-.38.72-.64-.28-.7-.16-.94.69-.23.84-.46-.12-.74,0-1,.73-.08.92-.27.05-.75.26-.92.73.1,1,0,.21-.72.46-.84.68.25.94.16.37-.65.63-.71.62.4.89.37.5-.56.78-.56.51.53.78.56.62-.43.88-.37.38.63.64.71.7-.27.94-.16.23.7.46.84.74-.11.95,0,.08.73.27.92.75.06.92.27-.09.72.05,1,.72.22.84.46-.25.69-.16.94.65.38.71.64-.4.61-.37.88S428.08,195,428.08,195.22Z" style="fill:#fff"></path><path d="M428.08,195.22c0,.28-.53.52-.56.78s.43.62.37.89-.63.38-.71.63.27.7.16.95-.7.23-.84.46.11.74-.05.95-.73.07-.92.26,0,.75-.27.92-.72-.09-.95.06-.22.72-.46.83-.69-.25-.94-.16-.38.66-.64.72-.61-.4-.88-.37-.51.55-.78.55-.52-.52-.78-.55-.62.43-.89.37-.38-.63-.63-.72-.7.28-.95.16-.23-.69-.46-.84-.74.12-.95-.05-.07-.73-.26-.92-.75,0-.92-.26.09-.73,0-1-.73-.21-.84-.46.25-.68.16-.94-.66-.37-.72-.63.4-.62.37-.89-.55-.5-.55-.78.52-.51.55-.78-.43-.62-.37-.88.63-.38.72-.64-.28-.7-.16-.94.69-.23.84-.46-.12-.74,0-1,.73-.08.92-.27.05-.75.26-.92.73.1,1,0,.21-.72.46-.84.68.25.94.16.37-.65.63-.71.62.4.89.37.5-.56.78-.56.51.53.78.56.62-.43.88-.37.38.63.64.71.7-.27.94-.16.23.7.46.84.74-.11.95,0,.08.73.27.92.75.06.92.27-.09.72.05,1,.72.22.84.46-.25.69-.16.94.65.38.71.64-.4.61-.37.88S428.08,195,428.08,195.22Z" style="fill:none;stroke:#263238;stroke-linecap:round;stroke-linejoin:round"></path><path d="M423.38,195.22a2.77,2.77,0,1,1-2.77-2.77A2.77,2.77,0,0,1,423.38,195.22Z" style="fill:#16A34A"></path><path d="M459.21,188.23c0,.28-.52.52-.55.78s.43.62.37.89-.63.38-.72.63.28.7.17.95-.7.23-.84.46.11.74-.06.95-.73.07-.92.26-.05.75-.26.92-.73-.09-.95.06-.22.72-.46.83-.69-.25-.95-.16-.37.66-.63.72-.61-.4-.89-.37-.5.55-.78.55-.51-.52-.77-.55-.63.43-.89.37-.38-.63-.63-.72-.71.28-.95.16-.23-.69-.46-.84-.74.12-1-.05-.07-.73-.27-.92-.75-.05-.92-.26.1-.73,0-1-.72-.21-.84-.46.26-.68.17-.94-.66-.37-.72-.63.4-.62.37-.89-.55-.5-.55-.78.52-.51.55-.78-.43-.62-.37-.88.63-.38.72-.64-.28-.7-.17-.94.7-.23.84-.46-.11-.74.06-1,.73-.07.92-.26.05-.75.26-.92.72.09,1,0,.22-.72.46-.84.69.25.95.16.37-.65.63-.71.61.4.89.37.5-.56.77-.56.52.53.78.56.63-.43.89-.37.38.63.63.71.71-.27.95-.16.23.7.46.84.74-.11.95,0,.07.73.26.92.76.05.93.27-.1.72.05.95.72.22.84.46-.26.69-.17.94.66.38.72.64-.4.61-.37.88S459.21,188,459.21,188.23Z" style="fill:#fff"></path><path d="M459.21,188.23c0,.28-.52.52-.55.78s.43.62.37.89-.63.38-.72.63.28.7.17.95-.7.23-.84.46.11.74-.06.95-.73.07-.92.26-.05.75-.26.92-.73-.09-.95.06-.22.72-.46.83-.69-.25-.95-.16-.37.66-.63.72-.61-.4-.89-.37-.5.55-.78.55-.51-.52-.77-.55-.63.43-.89.37-.38-.63-.63-.72-.71.28-.95.16-.23-.69-.46-.84-.74.12-1-.05-.07-.73-.27-.92-.75-.05-.92-.26.1-.73,0-1-.72-.21-.84-.46.26-.68.17-.94-.66-.37-.72-.63.4-.62.37-.89-.55-.5-.55-.78.52-.51.55-.78-.43-.62-.37-.88.63-.38.72-.64-.28-.7-.17-.94.7-.23.84-.46-.11-.74.06-1,.73-.07.92-.26.05-.75.26-.92.72.09,1,0,.22-.72.46-.84.69.25.95.16.37-.65.63-.71.61.4.89.37.5-.56.77-.56.52.53.78.56.63-.43.89-.37.38.63.63.71.71-.27.95-.16.23.7.46.84.74-.11.95,0,.07.73.26.92.76.05.93.27-.1.72.05.95.72.22.84.46-.26.69-.17.94.66.38.72.64-.4.61-.37.88S459.21,188,459.21,188.23Z" style="fill:none;stroke:#263238;stroke-linecap:round;stroke-linejoin:round"></path><circle cx="451.74" cy="188.23" r="2.77" style="fill:#16A34A"></circle><path d="M452.86,199c0,.27-.53.51-.56.78s.43.62.37.88-.62.38-.71.63.28.71.16.95-.69.23-.84.46.12.74,0,.95-.73.08-.92.27-.05.75-.26.92-.73-.1-1,.05-.21.72-.46.84-.69-.26-.94-.17-.37.66-.64.72-.61-.4-.88-.37-.51.56-.78.56-.51-.53-.78-.56-.62.43-.88.37-.39-.63-.64-.72-.7.28-.94.17-.23-.7-.46-.84-.75.11-1-.05-.07-.73-.26-.93-.75,0-.92-.26.09-.72-.05-.95-.72-.22-.84-.46.25-.69.16-.95-.65-.37-.71-.63.4-.61.37-.88-.56-.51-.56-.78.53-.52.56-.78-.43-.63-.37-.89.62-.38.71-.63-.28-.7-.16-1,.7-.23.84-.46-.12-.74.05-1,.73-.07.92-.26,0-.76.26-.92.73.09,1-.06.21-.72.46-.84.69.26.94.17.37-.66.64-.72.61.4.88.37.51-.55.78-.55.51.52.78.55.62-.43.88-.37.39.63.64.72.7-.28.94-.17.23.7.46.84.75-.11,1,.06.07.73.26.92.75,0,.92.26-.09.73,0,1,.72.22.84.46-.25.69-.16,1,.65.37.71.63-.4.62-.37.89S452.86,198.76,452.86,199Z" style="fill:#fff"></path><path d="M452.86,199c0,.27-.53.51-.56.78s.43.62.37.88-.62.38-.71.63.28.71.16.95-.69.23-.84.46.12.74,0,.95-.73.08-.92.27-.05.75-.26.92-.73-.1-1,.05-.21.72-.46.84-.69-.26-.94-.17-.37.66-.64.72-.61-.4-.88-.37-.51.56-.78.56-.51-.53-.78-.56-.62.43-.88.37-.39-.63-.64-.72-.7.28-.94.17-.23-.7-.46-.84-.75.11-1-.05-.07-.73-.26-.93-.75,0-.92-.26.09-.72-.05-.95-.72-.22-.84-.46.25-.69.16-.95-.65-.37-.71-.63.4-.61.37-.88-.56-.51-.56-.78.53-.52.56-.78-.43-.63-.37-.89.62-.38.71-.63-.28-.7-.16-1,.7-.23.84-.46-.12-.74.05-1,.73-.07.92-.26,0-.76.26-.92.73.09,1-.06.21-.72.46-.84.69.26.94.17.37-.66.64-.72.61.4.88.37.51-.55.78-.55.51.52.78.55.62-.43.88-.37.39.63.64.72.7-.28.94-.17.23.7.46.84.75-.11,1,.06.07.73.26.92.75,0,.92.26-.09.73,0,1,.72.22.84.46-.25.69-.16,1,.65.37.71.63-.4.62-.37.89S452.86,198.76,452.86,199Z" style="fill:none;stroke:#263238;stroke-linecap:round;stroke-linejoin:round"></path><circle cx="445.39" cy="199.04" r="2.77" style="fill:#16A34A"></circle><path d="M438.33,204.5c0,.23-.44.43-.46.65s.36.52.31.74-.53.32-.6.53.23.59.14.79-.59.19-.71.38.1.63,0,.8-.61.06-.77.22,0,.63-.22.77-.61-.08-.8,0-.18.61-.38.7-.58-.21-.79-.13-.31.55-.53.6-.51-.34-.74-.31-.42.46-.65.46-.43-.44-.65-.46-.52.36-.74.31-.32-.53-.53-.6-.59.23-.79.13-.19-.58-.38-.7-.63.1-.8,0-.06-.61-.22-.77-.63,0-.77-.22.08-.61,0-.8-.61-.18-.71-.38.21-.58.14-.79-.55-.31-.6-.53.34-.51.31-.74-.46-.42-.46-.65.44-.43.46-.65-.36-.52-.31-.74.53-.32.6-.53-.23-.59-.14-.79.59-.2.71-.39-.1-.62,0-.79.61-.06.77-.22,0-.63.22-.77.61.07.8-.05.18-.6.38-.7.57.21.79.14.31-.55.53-.6.51.34.74.31.42-.46.65-.46.43.44.65.46.52-.36.74-.31.32.53.53.6.59-.23.79-.14.19.59.38.7.63-.09.8.05.06.61.22.77.63,0,.77.22-.08.6,0,.8.61.18.71.38-.22.57-.14.79.55.31.6.53-.34.51-.31.74S438.33,204.27,438.33,204.5Z" style="fill:#fff"></path><path d="M438.33,204.5c0,.23-.44.43-.46.65s.36.52.31.74-.53.32-.6.53.23.59.14.79-.59.19-.71.38.1.63,0,.8-.61.06-.77.22,0,.63-.22.77-.61-.08-.8,0-.18.61-.38.7-.58-.21-.79-.13-.31.55-.53.6-.51-.34-.74-.31-.42.46-.65.46-.43-.44-.65-.46-.52.36-.74.31-.32-.53-.53-.6-.59.23-.79.13-.19-.58-.38-.7-.63.1-.8,0-.06-.61-.22-.77-.63,0-.77-.22.08-.61,0-.8-.61-.18-.71-.38.21-.58.14-.79-.55-.31-.6-.53.34-.51.31-.74-.46-.42-.46-.65.44-.43.46-.65-.36-.52-.31-.74.53-.32.6-.53-.23-.59-.14-.79.59-.2.71-.39-.1-.62,0-.79.61-.06.77-.22,0-.63.22-.77.61.07.8-.05.18-.6.38-.7.57.21.79.14.31-.55.53-.6.51.34.74.31.42-.46.65-.46.43.44.65.46.52-.36.74-.31.32.53.53.6.59-.23.79-.14.19.59.38.7.63-.09.8.05.06.61.22.77.63,0,.77.22-.08.6,0,.8.61.18.71.38-.22.57-.14.79.55.31.6.53-.34.51-.31.74S438.33,204.27,438.33,204.5Z" style="fill:none;stroke:#263238;stroke-linecap:round;stroke-linejoin:round"></path><path d="M434.4,204.5a2.31,2.31,0,1,1-2.31-2.32A2.3,2.3,0,0,1,434.4,204.5Z" style="fill:#16A34A"></path><path d="M439.89,187.56c0,.23-.44.43-.46.65s.36.52.31.74-.53.32-.6.53.23.59.14.79-.59.19-.71.38.1.63,0,.8-.61.06-.77.22,0,.63-.22.77-.6-.08-.8,0-.18.61-.38.7-.57-.21-.79-.13-.31.55-.53.6-.51-.34-.74-.31-.42.46-.65.46-.43-.44-.65-.46-.52.36-.74.31-.32-.53-.53-.6-.59.23-.79.13-.19-.58-.38-.7-.63.1-.8,0-.06-.61-.22-.77-.63,0-.77-.22.08-.61,0-.8-.61-.18-.71-.38.22-.58.14-.79-.55-.31-.6-.53.34-.51.31-.74-.46-.42-.46-.65.44-.43.46-.65-.36-.52-.31-.74.53-.32.6-.53-.23-.59-.14-.79.59-.19.71-.39-.1-.62,0-.79.61-.06.77-.22,0-.63.22-.77.61.08.8-.05.18-.6.38-.7.58.21.79.14.31-.55.53-.6.51.34.74.31.42-.46.65-.46.43.44.65.46.52-.36.74-.31.32.53.53.6.59-.23.79-.14.19.59.38.71.63-.1.8,0,.06.61.22.77.63,0,.77.22-.08.6.05.8.6.18.7.38-.21.57-.14.79.55.31.6.53-.34.51-.31.74S439.89,187.33,439.89,187.56Z" style="fill:#fff"></path><path d="M439.89,187.56c0,.23-.44.43-.46.65s.36.52.31.74-.53.32-.6.53.23.59.14.79-.59.19-.71.38.1.63,0,.8-.61.06-.77.22,0,.63-.22.77-.6-.08-.8,0-.18.61-.38.7-.57-.21-.79-.13-.31.55-.53.6-.51-.34-.74-.31-.42.46-.65.46-.43-.44-.65-.46-.52.36-.74.31-.32-.53-.53-.6-.59.23-.79.13-.19-.58-.38-.7-.63.1-.8,0-.06-.61-.22-.77-.63,0-.77-.22.08-.61,0-.8-.61-.18-.71-.38.22-.58.14-.79-.55-.31-.6-.53.34-.51.31-.74-.46-.42-.46-.65.44-.43.46-.65-.36-.52-.31-.74.53-.32.6-.53-.23-.59-.14-.79.59-.19.71-.39-.1-.62,0-.79.61-.06.77-.22,0-.63.22-.77.61.08.8-.05.18-.6.38-.7.58.21.79.14.31-.55.53-.6.51.34.74.31.42-.46.65-.46.43.44.65.46.52-.36.74-.31.32.53.53.6.59-.23.79-.14.19.59.38.71.63-.1.8,0,.06.61.22.77.63,0,.77.22-.08.6.05.8.6.18.7.38-.21.57-.14.79.55.31.6.53-.34.51-.31.74S439.89,187.33,439.89,187.56Z" style="fill:none;stroke:#263238;stroke-linecap:round;stroke-linejoin:round"></path><path d="M436,187.56a2.31,2.31,0,1,1-2.31-2.32A2.3,2.3,0,0,1,436,187.56Z" style="fill:#16A34A"></path><path d="M466.08,205.56c0,.23-.44.43-.46.65s.36.52.31.74-.53.32-.6.53.23.59.13.79-.58.19-.7.38.1.63,0,.8-.61.06-.77.22,0,.63-.22.77-.61-.08-.8,0-.18.61-.38.7-.58-.21-.79-.13-.31.55-.53.6-.51-.34-.74-.31-.42.46-.65.46-.43-.44-.65-.46-.52.36-.74.31-.32-.53-.53-.6-.59.23-.79.13-.2-.58-.39-.7-.62.1-.79,0-.06-.61-.22-.77-.63,0-.77-.22.07-.61,0-.8-.6-.18-.7-.38.21-.58.14-.79-.55-.31-.6-.53.33-.51.31-.74-.46-.42-.46-.65.43-.43.46-.65-.36-.52-.31-.74.52-.32.6-.53-.23-.59-.14-.79.58-.2.7-.39-.09-.62,0-.8.61,0,.77-.21,0-.63.22-.77.6.07.79-.05.19-.6.39-.7.57.21.79.14.31-.55.53-.6.51.33.74.31.42-.46.65-.46.43.43.65.46.52-.36.74-.31.32.52.53.6.59-.24.79-.14.19.58.38.7.63-.09.8.05.06.61.22.77.63,0,.77.22-.08.6,0,.79.61.19.7.39-.21.57-.13.79.55.31.6.53-.34.51-.31.74S466.08,205.33,466.08,205.56Z" style="fill:#fff"></path><path d="M466.08,205.56c0,.23-.44.43-.46.65s.36.52.31.74-.53.32-.6.53.23.59.13.79-.58.19-.7.38.1.63,0,.8-.61.06-.77.22,0,.63-.22.77-.61-.08-.8,0-.18.61-.38.7-.58-.21-.79-.13-.31.55-.53.6-.51-.34-.74-.31-.42.46-.65.46-.43-.44-.65-.46-.52.36-.74.31-.32-.53-.53-.6-.59.23-.79.13-.2-.58-.39-.7-.62.1-.79,0-.06-.61-.22-.77-.63,0-.77-.22.07-.61,0-.8-.6-.18-.7-.38.21-.58.14-.79-.55-.31-.6-.53.33-.51.31-.74-.46-.42-.46-.65.43-.43.46-.65-.36-.52-.31-.74.52-.32.6-.53-.23-.59-.14-.79.58-.2.7-.39-.09-.62,0-.8.61,0,.77-.21,0-.63.22-.77.6.07.79-.05.19-.6.39-.7.57.21.79.14.31-.55.53-.6.51.33.74.31.42-.46.65-.46.43.43.65.46.52-.36.74-.31.32.52.53.6.59-.24.79-.14.19.58.38.7.63-.09.8.05.06.61.22.77.63,0,.77.22-.08.6,0,.79.61.19.7.39-.21.57-.13.79.55.31.6.53-.34.51-.31.74S466.08,205.33,466.08,205.56Z" style="fill:none;stroke:#263238;stroke-linecap:round;stroke-linejoin:round"></path><path d="M462.15,205.56a2.32,2.32,0,1,1-2.31-2.32A2.3,2.3,0,0,1,462.15,205.56Z" style="fill:#16A34A"></path><path d="M444.48,226.32c0,.22-.44.43-.47.65s.36.52.31.74-.52.32-.6.53.24.58.14.79-.58.19-.7.38.09.62-.05.8-.61.06-.77.22,0,.63-.22.77-.6-.08-.79,0-.18.6-.39.7-.57-.21-.79-.13-.31.54-.53.59-.51-.33-.74-.3-.42.46-.65.46-.43-.44-.65-.46-.52.35-.74.3-.32-.52-.53-.59-.59.23-.79.13-.19-.58-.38-.7-.62.1-.8,0-.06-.61-.22-.77-.63,0-.77-.22.08-.61,0-.8-.61-.18-.7-.38.21-.58.13-.79-.54-.31-.59-.53.33-.52.3-.74-.46-.43-.46-.65.44-.43.46-.66-.35-.52-.3-.73.52-.32.59-.53-.23-.59-.13-.79.58-.2.7-.39-.1-.62,0-.8.61-.06.77-.22,0-.62.22-.76.61.07.8-.05.18-.6.38-.7.58.21.79.14.31-.55.53-.6.51.33.74.31.42-.47.65-.47.43.44.65.47.52-.36.74-.31.32.52.53.6.59-.24.79-.14.2.58.39.7.62-.09.8.05.06.61.21.77.63,0,.77.21-.07.61.05.8.6.18.7.39-.21.57-.14.79.55.31.6.53-.33.51-.31.73S444.48,226.09,444.48,226.32Z" style="fill:#fff"></path><path d="M444.48,226.32c0,.22-.44.43-.47.65s.36.52.31.74-.52.32-.6.53.24.58.14.79-.58.19-.7.38.09.62-.05.8-.61.06-.77.22,0,.63-.22.77-.6-.08-.79,0-.18.6-.39.7-.57-.21-.79-.13-.31.54-.53.59-.51-.33-.74-.3-.42.46-.65.46-.43-.44-.65-.46-.52.35-.74.3-.32-.52-.53-.59-.59.23-.79.13-.19-.58-.38-.7-.62.1-.8,0-.06-.61-.22-.77-.63,0-.77-.22.08-.61,0-.8-.61-.18-.7-.38.21-.58.13-.79-.54-.31-.59-.53.33-.52.3-.74-.46-.43-.46-.65.44-.43.46-.66-.35-.52-.3-.73.52-.32.59-.53-.23-.59-.13-.79.58-.2.7-.39-.1-.62,0-.8.61-.06.77-.22,0-.62.22-.76.61.07.8-.05.18-.6.38-.7.58.21.79.14.31-.55.53-.6.51.33.74.31.42-.47.65-.47.43.44.65.47.52-.36.74-.31.32.52.53.6.59-.24.79-.14.2.58.39.7.62-.09.8.05.06.61.21.77.63,0,.77.21-.07.61.05.8.6.18.7.39-.21.57-.14.79.55.31.6.53-.33.51-.31.73S444.48,226.09,444.48,226.32Z" style="fill:none;stroke:#263238;stroke-linecap:round;stroke-linejoin:round"></path><path d="M440.55,226.32a2.32,2.32,0,1,1-2.32-2.32A2.32,2.32,0,0,1,440.55,226.32Z" style="fill:#16A34A"></path><path d="M432.38,265.67h14.4c6.71-4.49,11.42-15,11.42-27.36a45.47,45.47,0,0,0-.7-8H421.66a46.44,46.44,0,0,0-.7,8C421,250.63,425.68,261.18,432.38,265.67Z" style="fill:#fff;stroke:#263238;stroke-linecap:round;stroke-linejoin:round"></path></g><g id="freepik--Floor--inject-109"><line x1="11" y1="444.72" x2="494.33" y2="444.72" style="fill:none;stroke:#263238;stroke-linecap:round;stroke-linejoin:round"></line></g><g id="freepik--character-3--inject-109"><path d="M427.51,444.76h-3.46a.88.88,0,0,1-.88-.84l-2.74-28.54h10.7l-2.74,28.54A.88.88,0,0,1,427.51,444.76Z" style="fill:#fff;stroke:#263238;stroke-linecap:round;stroke-linejoin:round"></path><path d="M460.84,444.76h-3.45a.89.89,0,0,1-.89-.84l-2.74-28.54h10.7l-2.73,28.54A.9.9,0,0,1,460.84,444.76Z" style="fill:#fff;stroke:#263238;stroke-linecap:round;stroke-linejoin:round"></path><path d="M406.51,444.76h-3.46a.88.88,0,0,1-.88-.84l-2.74-28.54h10.7l-2.74,28.54A.88.88,0,0,1,406.51,444.76Z" style="fill:#fff;stroke:#263238;stroke-linecap:round;stroke-linejoin:round"></path><path d="M371.84,444.76h-3.45a.89.89,0,0,1-.89-.84l-2.74-28.54h10.7l-2.73,28.54A.9.9,0,0,1,371.84,444.76Z" style="fill:#fff;stroke:#263238;stroke-linecap:round;stroke-linejoin:round"></path><path d="M422.3,416.55H353.78s-7-23.4-12.46-46-11.68-51-5.06-56.84,24.13,4.28,37.37,7,16-.39,24.92-9.74,16.74-24.53,31.92-34.26,26.48-11.29,37-4.67a36.29,36.29,0,0,1,11.29,24.14c.78,15.18-3.5,34.26-8.95,44.77S422.3,416.55,422.3,416.55Z" style="fill:#525252;stroke:#263238;stroke-linecap:round;stroke-linejoin:round"></path><path d="M431.93,373.72h-74s-13.34-13.34-15.34-45.34" style="fill:none;stroke:#263238;stroke-linecap:round;stroke-linejoin:round"></path><path d="M380.19,244.31l8.38,5.12s-5.82,31.89-4.42,48.65,8.38,32.83,8.38,32.83H370s-8.38-20-12.1-34,2.79-46.79,2.79-46.79Z" style="fill:#757575;stroke:#263238;stroke-linecap:round;stroke-linejoin:round"></path><path d="M321.83,299.43,316,294.77s-2.79-8.61-4.88-11.17-5.59-2.56-9.55-3-6.52-1.86-6.75-.23a3,3,0,0,0,1.86,3.26c1.17.46,4.66,2.09,4.66,2.09a6.42,6.42,0,0,1-2.8,1.17c-1.16,0-5.26-3.51-7.82-4.44s-4.42-2.33-4.19-1.17,6,12.13,7.59,14,2.8,1.4,6.75,2.79,5.12,1.86,5.12,1.86l4,1.17,9.08,8.61Z" style="fill:#fff;stroke:#263238;stroke-linecap:round;stroke-linejoin:round"></path><path d="M292.5,294.31s-7.08-7.84-7-9.95-.18-11.06.78-11.17,2.34.08,2,4,1.84,5.84,2.21,6.59-.09,5.61-.09,5.61Z" style="fill:#fff;stroke:#263238;stroke-linecap:round;stroke-linejoin:round"></path><path d="M291.09,292.69s-1.6-4.2-2.07-6.26-2.87-10.68-2-11,2.29-.49,3,3.41.07,9.3.61,9.94a22,22,0,0,0,2.58,2.05Z" style="fill:#fff;stroke:#263238;stroke-linecap:round;stroke-linejoin:round"></path><path d="M292.74,295.24s-3.42-4.68-3.66-6.77-.11-10.66.82-10.9,1.72,2.71,2,6.67.42,6.34.89,7a20.74,20.74,0,0,0,2.32,2.33Z" style="fill:#fff;stroke:#263238;stroke-linecap:round;stroke-linejoin:round"></path><path d="M307.87,299.89s-11.18-1.63-13.27-2.56-3.26-4.19-3.26-5.12-.93-10.94-.93-11.64.7-1.86,1.86-1.16,2.09,7.68,2.09,7.68l7,5.82s5.82.47,7.21,2.1" style="fill:#fff;stroke:#263238;stroke-linecap:round;stroke-linejoin:round"></path><path d="M355.75,254.55s-3.72.7-4.65,2.8-7,49.58-7,49.58l-25.37-11.41-6.52,14s40,20.25,43.3,20.95,11.17,1.63,14.43-.93-9.11-13.27-11.36-23.13c-5.33-23.33-4.66-39.33-4.66-39.33S360.41,251.76,355.75,254.55Z" style="fill:#16A34A;stroke:#263238;stroke-linecap:round;stroke-linejoin:round"></path><path d="M350.63,281.79s5.82,23.28,8.38,29.56,7.68,16.76,7.68,16.76l5.59.93s-11.64-25.14-13.73-35.15,2.56-35.38,2.79-36.31-1.63-6.75-5.12-5.59" style="fill:#16A34A;stroke:#263238;stroke-linecap:round;stroke-linejoin:round"></path><polygon points="361.11 275.27 367.86 292.26 375.07 274.11 366.46 267.36 361.11 275.27" style="fill:#fff;stroke:#263238;stroke-linecap:round;stroke-linejoin:round"></polygon><polygon points="359.48 261.54 356.92 281.32 367.86 272.94 359.48 261.54" style="fill:#fff;stroke:#263238;stroke-linecap:round;stroke-linejoin:round"></polygon><path d="M344.58,210.56s-5.12,12.1-4.89,14.2,1.16,5.58.23,7.91-6.28,5.12-5.35,7.45,4,3.49,4,3.49,0,10.94,2.32,13.74,14.67,0,14.67,0l11.17,16.29,16.06-29.1-2.32-4.88s4.19-18.16-4.66-26.31S348.07,207.07,344.58,210.56Z" style="fill:#fff;stroke:#263238;stroke-linecap:round;stroke-linejoin:round"></path><path d="M367.16,238.72s.23,8.15-4.42,11.18" style="fill:#fff;stroke:#263238;stroke-linecap:round;stroke-linejoin:round"></path><path d="M345.74,231.62c0,1.1-.41,2-.93,2s-.93-.88-.93-2,.42-2,.93-2S345.74,230.53,345.74,231.62Z" style="fill:#263238"></path><path d="M343,226.15s3.72-4,6.05.47" style="fill:none;stroke:#263238;stroke-linecap:round;stroke-linejoin:round"></path><path d="M348.07,204s-8.85,2.79-6.05,6.05,4,3,10.47,2.1,11.64,2.32,7.92,4.89-7.22,3.72-5.12,6,5.58,4,5.12,5.82-.24,3.49,1.16,3.49,2.33-1.63,3.49-3.49,5.12-4.89,6.29,1.16-1.86,8.61-3,8.61h-1.16s4,4.66,7.21,3.73a24.68,24.68,0,0,0,6.06-2.79s6.51-8.15,5.82-17.23-4.89-14.9-14.9-18.39S348.07,204,348.07,204Z" style="fill:#263238;stroke:#263238;stroke-linecap:round;stroke-linejoin:round"></path><path d="M381.82,242.91l-15.36,29.8L376.24,283s8.38-22.58,9.31-28.16,1.63-9.55,1.63-9.55Z" style="fill:#fff;stroke:#263238;stroke-linecap:round;stroke-linejoin:round"></path><path d="M372.93,327.05s-45-2.33-50.67,0-7,8.33-6.33,14.33,4,41.34,5.33,51.34,2,22.33,1,24.66-4,6.34-3,8.67,2.67,3.33,2.67,4.33-1.34,2.67-1.34,2.67-12.33,5.33-16.66,7-4.67,3-3.67,3.67,21.67,0,25.33,0,10.67-2.34,10.67-2.34v1.67h9v-6.33a54.3,54.3,0,0,0-.33-6s1.66-4.34,1.33-6-2.33-5.34-3-8.67,0-8,.33-11.67a28.43,28.43,0,0,0-.33-8c-.33-2,2-38.33,2-38.33s26.33,8,29,8.33,24.33,8.34,33.33,6-3.66-30.66-13.66-40.33S372.93,327.05,372.93,327.05Z" style="fill:#263238;stroke:#263238;stroke-linecap:round;stroke-linejoin:round"></path><path d="M391.26,323.72s-29.67,2.33-33,5.66-2.33,10-2.33,14.34,4,62,4.33,65.33-3.33,6.67-2,9a15.39,15.39,0,0,1,2,6c0,1-9,8.33-12.67,10.33s-14,4.34-15.66,6-1.34,3,1.66,4,28,0,28,0,3.67,0,5-1a9.22,9.22,0,0,1,2.34-1.33l.33,2.23h13a94.34,94.34,0,0,0,1.33-10.9,54,54,0,0,0-1-8.33,10.47,10.47,0,0,0,1.67-6c-.33-3-2.67-4.33-2.67-6.33s2-8,1.67-11.67-.67-8-.67-8l3-29.33s20,11,29.67,10,12.33-2.34,15-7,2.67-24.34-1.67-32S400.26,320.05,391.26,323.72Z" style="fill:#263238;stroke:#263238;stroke-linecap:round;stroke-linejoin:round"></path><path d="M387.18,245.24s-7,17.46-7.68,27.94.23,34.91,2.79,41.9,3.72,11.4,3.72,11.4,23.28,3.49,26.31,4.66,9.31,10.24,10.47,17.92c.34,2.22.58,4.6.75,6.88a57.38,57.38,0,0,1-1.17,15.57c-.2.95-.24,1.75.06,2,.93.93,13.4-4.7,17.59-19.13s2.09-31.43-1.63-39.34S420.23,259.91,414,253.62,387.18,245.24,387.18,245.24Z" style="fill:#16A34A;stroke:#263238;stroke-linecap:round;stroke-linejoin:round"></path><path d="M350.86,303.2l-7.45-3.95s-5.12-4.66-6.28-6.06-4.42-1.86-7-2.09-7.45-1.4-7.92-.23.23,1.86,1.4,2.32,5.59,1.4,6.05,2.1.93,1.16-.46,1.86-7.69.93-8.38.93-8.39-3.26-10-3-.47,1.63.93,2.79,7.21,6.75,8.14,8.38,7,4.19,9.78,4.66,13.5.69,13.5.69l6.52,1.63Z" style="fill:#fff;stroke:#263238;stroke-linecap:round;stroke-linejoin:round"></path><path d="M396.72,258s-6.75,6.52-7,13.51,0,9.77,0,10.94.46,24.9.46,24.9L349.7,302,346.91,320l56.79,13s4.66.7,7-2.79,8.15-52.84,8.15-52.84" style="fill:#16A34A;stroke:#263238;stroke-linecap:round;stroke-linejoin:round"></path><path d="M401.12,310.47a11.89,11.89,0,0,1,1.89,1.81" style="fill:none;stroke:#263238;stroke-linecap:round;stroke-linejoin:round"></path><path d="M390.2,307.39a18.45,18.45,0,0,1,8.51,1.61" style="fill:none;stroke:#263238;stroke-linecap:round;stroke-linejoin:round"></path><path d="M394.39,309.72s5.82,1.63,7.22,5.59" style="fill:none;stroke:#263238;stroke-linecap:round;stroke-linejoin:round"></path><path d="M422.3,416.55s1.17-41.7,11.68-68.95,16.74-30.76,21-29.59,10.51,8.57,14.41,3.5,9.73-19.07,7.39-31.53-7-14.8-9.34-17.91,10.12,4.28,15.57,12.46,5.45,28,2.34,48.66-10.9,79.08-13.63,81.42-9.34,2.33-9.34,2.33H426.58Z" style="fill:#263238;stroke:#263238;stroke-linecap:round;stroke-linejoin:round"></path></g><g id="freepik--character-2--inject-109"><path d="M228.93,279.85s8.75,44.25,7.75,51.5-23.5,20.25-35.5,20.5-21-2.75-22.75-7.75,2-28.75,2-28.75-6.5-47.5-5.75-49.75,3-3.5,7.25-3.75,20.75-2.5,20.75-2.5l24.25,2" style="fill:#16A34A;stroke:#263238;stroke-linecap:round;stroke-linejoin:round"></path><path d="M219.72,209.29s4.86,7.88,5.55,10.42,2.32,5.79,4.17,6.25,3.24.93,2.32,3.24a9.94,9.94,0,0,1-3.48,3.94s-.23,11.58-.69,13-12.5,1.85-12.5,1.85l-1.85,29.63L190.78,260l4.16-50.24S207.68,200.5,219.72,209.29Z" style="fill:#fff;stroke:#263238;stroke-linecap:round;stroke-linejoin:round"></path><path d="M223.86,224.8c.26,1.12,0,2.14-.54,2.27s-1.23-.68-1.49-1.8,0-2.13.54-2.26S223.6,223.68,223.86,224.8Z" style="fill:#263238"></path><path d="M219.25,223.19a5.62,5.62,0,0,1,5.1-1.63" style="fill:none;stroke:#263238;stroke-linecap:round;stroke-linejoin:round"></path><path d="M221.57,205.59s-3.24,10.88-6,20.6-4.4,13.66-3.94,17.6,3.94,20.37,3.94,20.37-7.18,2.32-18.29.93a61.36,61.36,0,0,1-20.14-6.48s1.16-11.12,1.85-21.77,3-26.62,8.1-30.79S214.39,200,221.57,205.59Z" style="fill:#263238;stroke:#263238;stroke-linecap:round;stroke-linejoin:round"></path><path d="M214.93,300.85s-14-3.25-17.75-4-15.5,6.5-18,8.5-3,4.25,2.5,3.75,23.25-4.25,23.25-4.25l10.75,2Z" style="fill:#fff;stroke:#263238;stroke-linecap:round;stroke-linejoin:round"></path><path d="M206.18,298.1s11.75-4,14.25-4,12.75,3.5,12.75,3.5l-7,1.5h-6.25l-13,10.25-3.5-10.25Z" style="fill:#fff;stroke:#263238;stroke-linecap:round;stroke-linejoin:round"></path><path d="M188.18,262.35s-14.5-1.75-18-1-5.5,6.75-5.5,8.75-4,53.5-4.25,57.5,3.75,7.25,7.25,7.25,44.75-18.5,44.75-18.5l-6.25-18.25-25,8.75,2-32.25" style="fill:#16A34A;stroke:#263238;stroke-linecap:round;stroke-linejoin:round"></path><path d="M216.18,260.35c1.25,0,11.5-.75,13.75,1.5,2,2,17,37,20.69,45.61a1.72,1.72,0,0,1-1.2,2.35l-33.49,7.54-2.5-16.75,19.75-3-6.75-24.25" style="fill:#16A34A;stroke:#263238;stroke-linecap:round;stroke-linejoin:round"></path><path d="M237.55,305.4s-40.85,15.25-51.21,22.44-12.94,15-12.94,22.73S182,365.24,195,365.24c8.93,0,36.54-29.06,36.54-29.06s1.15,11.51,5.18,19.28,25,32.5,27.33,35.67,11.22,16.4,12.08,17.26,4.6.29,5.75-.86,19.56-17.84,21-21.29,1.73-5.47,0-5.18-18.41,5.18-21.57,5.18H277s-10.35-14.39-13.23-23.88-11.8-33.66-16.4-44.59S240.14,305.11,237.55,305.4Z" style="fill:#fff;stroke:#263238;stroke-linecap:round;stroke-linejoin:round"></path><path d="M264.56,364.73c-.32-.82-.6-1.61-.83-2.37-2.88-9.49-11.8-33.66-16.4-44.59s-7.19-12.66-9.78-12.37c0,0-40.85,15.25-51.21,22.44s-12.94,15-12.94,22.73S182,365.24,195,365.24c8.93,0,36.54-29.06,36.54-29.06s1.15,11.51,5.18,19.28c2.12,4.09,8.94,12.88,15.27,20.76Z" style="fill:#263238;stroke:#263238;stroke-linecap:round;stroke-linejoin:round"></path><path d="M302.85,381.06c-1.72.29-18.41,5.18-21.57,5.18H277l-.13-.19a3.59,3.59,0,0,0,.13,2.49,14.39,14.39,0,0,0,2.59,4l-9.06,7.9c2.66,3.87,5.17,7.48,5.61,7.92.86.86,4.6.29,5.75-.86s19.56-17.84,21-21.29S304.58,380.77,302.85,381.06Z" style="fill:none;stroke:#263238;stroke-linecap:round;stroke-linejoin:round"></path><path d="M204.75,362.36s-1.15-13.81,8.63-22.73,22.44-8.91,25,2.31-4.89,60.72-6.9,69.93-2.87,16.7-2.87,16.7c-.07,1.2,5.05,4.51,10.93,7.48,6.91,3.49,8.92,5.18,8.06,6.9s-5.18,1.73-12.37,1.44-18.7,1.15-20.14,0-1.72-3.74-1.15-8.34a61.68,61.68,0,0,1,2.59-10.36s1.14-34.56-.3-45.49-2-18.13-2-18.13S211.37,364.37,204.75,362.36Z" style="fill:#fff;stroke:#263238;stroke-linecap:round;stroke-linejoin:round"></path><path d="M235.26,444.39c7.19.29,11.51.29,12.37-1.44s-1.15-3.41-8.06-6.9c-5.65-2.85-10.58-6-10.9-7.32-.95.58-2,1.46-2,2.43v3.74l-12.09-2c-.24,1.07-.44,2.17-.57,3.2-.57,4.6-.29,7.19,1.15,8.34S228.07,444.11,235.26,444.39Z" style="fill:#fff;stroke:#263238;stroke-linecap:round;stroke-linejoin:round"></path><path d="M232.8,405.56c2.83-14.35,7.79-54.17,5.61-63.62-2.59-11.22-15.24-11.22-25-2.31s-11.67,23-11.67,23a19.77,19.77,0,0,0,12.54-.6s.57,7.2,2,18.13c.53,4,.63,20.29.55,25.4A34.9,34.9,0,0,0,232.8,405.56Z" style="fill:#263238;stroke:#263238;stroke-linecap:round;stroke-linejoin:round"></path><path d="M206.06,347.16a27.45,27.45,0,0,0-1.17,3.49" style="fill:none;stroke:#737373;stroke-linecap:round;stroke-linejoin:round"></path><path d="M239.16,352.07s-.7-27.92-11.9-28c-6.78-.06-14.45,9.77-18.91,18.23" style="fill:none;stroke:#737373;stroke-linecap:round;stroke-linejoin:round"></path></g><g id="freepik--Table--inject-109"><path d="M270,444.72H193.16a2,2,0,0,1-2-2.22l9.54-89.68a2,2,0,0,1,2-1.79l67.26-.12h0a2,2,0,0,1,1.41.59,2,2,0,0,1,.59,1.41v89.81A2,2,0,0,1,270,444.72Zm-74.59-4H268v-85.8L204.5,355Z" style="fill:#525252;stroke:#263238;stroke-linecap:round;stroke-linejoin:round"></path><path d="M347.25,444.72H270.44a2,2,0,0,1-2-2V352.91a2,2,0,0,1,2-2h0l67.26.12a2,2,0,0,1,2,1.79l9.54,89.68a2,2,0,0,1-.51,1.55A2,2,0,0,1,347.25,444.72Zm-74.81-4H345L335.91,355l-63.47-.11Z" style="fill:#525252;stroke:#263238;stroke-linecap:round;stroke-linejoin:round"></path><rect x="267.65" y="352.91" width="5.18" height="91.55" style="fill:#525252;stroke:#263238;stroke-linecap:round;stroke-linejoin:round"></rect><path d="M269.33,317.69a13.47,13.47,0,0,0-1.51-5.54c-1.38-2.26-6.42-3.9-9.06-2.77a37.61,37.61,0,0,0-3.9,1.89,29.77,29.77,0,0,1,7.43,3.52A18.72,18.72,0,0,0,269.33,317.69Z" style="fill:#16A34A"></path><path d="M274.61,319.32a12.9,12.9,0,0,1-3.52-6.92c-.5-4,3.78-10.31,3.78-10.31a45.08,45.08,0,0,1,3.39,8.43C279.52,315.05,274.61,319.32,274.61,319.32Z" style="fill:#16A34A"></path><path d="M280.4,318.07s-.75-3.78.63-6.42,5-2.39,8.68-1.26a20.55,20.55,0,0,0,4.78,1.13,54.4,54.4,0,0,1-7.92,4.41A49.08,49.08,0,0,1,280.4,318.07Z" style="fill:#16A34A"></path><path d="M274.65,331.62a.32.32,0,0,1-.33-.32v-18a.33.33,0,0,1,.33-.33.32.32,0,0,1,.32.33v18A.32.32,0,0,1,274.65,331.62Z" style="fill:#263238"></path><path d="M276.16,331.62h-.05a.33.33,0,0,1-.27-.37c.06-.45,1.58-11.11,6.74-17a.34.34,0,0,1,.46,0,.33.33,0,0,1,0,.46c-5,5.77-6.58,16.58-6.59,16.69A.32.32,0,0,1,276.16,331.62Z" style="fill:#263238"></path><path d="M273.14,331.37h0a.32.32,0,0,1-.32-.33c0-.1.05-10.34-6-15.21a.33.33,0,1,1,.41-.51c6.34,5.07,6.29,15.3,6.28,15.73A.32.32,0,0,1,273.14,331.37Z" style="fill:#263238"></path><path d="M278.17,331.24h-.08a.31.31,0,0,1-.23-.39,20.74,20.74,0,0,1,2.94-6.15.32.32,0,0,1,.46-.07.33.33,0,0,1,.07.45,20.73,20.73,0,0,0-2.85,5.93A.31.31,0,0,1,278.17,331.24Z" style="fill:#263238"></path><path d="M280.15,326.24s-.13-3.52,1.38-4,2.9.75,4,1.51,2.39,1.51,2.39,3.77a42.39,42.39,0,0,1-.88,6.42s-1.26-3.9-3.4-5.66A8.84,8.84,0,0,0,280.15,326.24Z" style="fill:#16A34A"></path><path d="M270.87,331.37a.34.34,0,0,1-.31-.23,11.5,11.5,0,0,0-3.28-4.87.32.32,0,0,1-.06-.46.33.33,0,0,1,.46-.05,11.87,11.87,0,0,1,3.5,5.19.31.31,0,0,1-.21.4A.16.16,0,0,1,270.87,331.37Z" style="fill:#263238"></path><path d="M269.33,327.37a5.25,5.25,0,0,0-.75-3.9c-1.26-1.63-4.28-1.25-5.79.51s-3.65,7-3.65,7a12,12,0,0,1,6.54-2.39C269.2,328.63,269.33,327.37,269.33,327.37Z" style="fill:#16A34A"></path><polygon points="279.36 350.66 269.31 350.66 264.29 334.05 284.38 334.05 279.36 350.66" style="fill:#263238;stroke:#263238;stroke-linecap:round;stroke-linejoin:round"></polygon><rect x="264.24" y="331.3" width="20.19" height="2.75" style="fill:#263238;stroke:#263238;stroke-linecap:round;stroke-linejoin:round"></rect><rect x="197.73" y="350.55" width="144.96" height="4.72" style="fill:#fff;stroke:#263238;stroke-linecap:round;stroke-linejoin:round"></rect></g><g id="freepik--character-1--inject-109"><path d="M148.93,260.19s5,10.5,8.25,19.25,9.5,37.5,7.25,39-9.75,4.25-13.75-.75-11.25-27-11.25-27l5.25-17.25" style="fill:#16A34A;stroke:#263238;stroke-linecap:round;stroke-linejoin:round"></path><path d="M151.27,278.45l-8.14,18.85-19.27,34.05S96,332.21,92,332.85s-20.35,3.43-24.63,5.78-7.29,4.72-7.93,3.65-2.35-4.07-1.71-7.07S63,327.28,65,323,84,260.67,84.45,257.68s3-7.71,7.71-10.93,25.7-7.71,25.7-7.71a105.58,105.58,0,0,1,14.78,6.64c5.78,3.43,11.14,7.5,13.49,10.5S153.41,272,153.41,272" style="fill:#16A34A;stroke:#263238;stroke-linecap:round;stroke-linejoin:round"></path><path d="M90.45,326.29l2,.47" style="fill:none;stroke:#263238;stroke-linecap:round;stroke-linejoin:round"></path><path d="M67.22,326.76s5.46-3.34,19-1.24" style="fill:none;stroke:#263238;stroke-linecap:round;stroke-linejoin:round"></path><path d="M61.29,337.82s2-4.74,15.41-5.14" style="fill:none;stroke:#263238;stroke-linecap:round;stroke-linejoin:round"></path><polygon points="140.35 253.82 140.99 267.31 134.35 259.82 140.35 253.82" style="fill:#fff;stroke:#263238;stroke-linecap:round;stroke-linejoin:round"></polygon><polygon points="125.79 227.69 121.72 237.54 130.3 249.68 131.14 265.39 145.49 247.18 129.43 224.91 125.79 227.69" style="fill:#fff;stroke:#263238;stroke-linecap:round;stroke-linejoin:round"></polygon><path d="M130.67,238.82s5.55,12.82,8.8,15.69l4.79-6.12-13-12.83Z" style="fill:#263238;stroke:#263238;stroke-linecap:round;stroke-linejoin:round"></path><path d="M165.41,213.56s-.86,12.2-1.93,13.49-2.78,1.93-2.78,2.57.85,8.14.21,9.42S156,241,156,241s-4.49,10.92-6.21,12-11.35-5.56-14.35-8.78-5.56-5.78-5.56-7.49v-3.86l.21-8.78s-.43-12.21,3.21-15.21,21.85-1.07,24.2-.21S165.41,213.56,165.41,213.56Z" style="fill:#fff;stroke:#263238;stroke-linecap:round;stroke-linejoin:round"></path><path d="M157.91,226.19a10.26,10.26,0,0,0-6.42-2.35" style="fill:none;stroke:#263238;stroke-linecap:round;stroke-linejoin:round"></path><ellipse cx="153.2" cy="229.62" rx="2.14" ry="0.86" transform="matrix(0.34, -0.94, 0.94, 0.34, -114.7, 296.12)" style="fill:#263238"></ellipse><path d="M132.85,224.48l2.79.64s1.28-6.21,2.78-6.42,6,1.28,6.21-.65-1.71-6.21-.43-7.28,18.21,2.79,19.28,3.43,2.36,2.14,5.57-1.29,3.21-9.42,1.5-13.06-4.5-3.43-6-1.07a9.81,9.81,0,0,1-2.57,3s-4.5-10.28-7.71-8.36a8.26,8.26,0,0,0-3.85,4.72s-12.85-4.72-20.14-1.5-8.13,10.06-8.13,16.49,2.35,15.63,3.21,16.06,4.92-.21,5.35-.86Z" style="fill:#263238;stroke:#263238;stroke-linecap:round;stroke-linejoin:round"></path><path d="M133.5,228.12s1.71-8.35-1.5-10.71-5.14,3.21-4.5,8.35,3.43,5.14,3.43,5.14" style="fill:#fff;stroke:#263238;stroke-linecap:round;stroke-linejoin:round"></path><polygon points="121.93 231.33 134.14 254.03 126.64 267.31 114.86 238.83 121.93 231.33" style="fill:#fff;stroke:#263238;stroke-linecap:round;stroke-linejoin:round"></polygon><path d="M147.73,270.6v-4.46s-2.45-4.23-2.45-6.46-.45-8-.45-8,.9-1.12,1.79-.67l.89.44s2-3.12,3.79-3.79,5.35-1.56,6,0a6,6,0,0,1,.66,3.57c-.22.67,2.9,4.24,3.35,5.35s.22,3.34.22,4.9-3.12,6.91-4.23,8.47-3.57,6.24-3.57,6.24Z" style="fill:#fff;stroke:#263238;stroke-linecap:round;stroke-linejoin:round"></path><path d="M147.51,251.43l2.26,1.53a7,7,0,0,0,1.65-3" style="fill:none;stroke:#263238;stroke-linecap:round;stroke-linejoin:round"></path><polygon points="141.71 275.28 147.29 268.82 155.98 275.06 151.52 283.53 141.71 275.28" style="fill:#fff;stroke:#263238;stroke-linecap:round;stroke-linejoin:round"></polygon><path d="M86.64,258s-6.8,17.79-5.16,21.45,5.21,4.63,9.64,13.74c11.47,23.6,23.16,36.43,25.81,36s33.6-38.29,34.75-40.62,2.95-4.94,1.93-6.43-9.9-8.79-12.12-8.61-22.29,23.85-22.29,23.85l-15.79-39.41s-2.83-1.78-8.57,1.83" style="fill:#16A34A;stroke:#263238;stroke-linecap:round;stroke-linejoin:round"></path><path d="M119.2,297.35a89.16,89.16,0,0,0-5.22,9.82" style="fill:none;stroke:#263238;stroke-linecap:round;stroke-linejoin:round"></path><path d="M110,303.74a12.76,12.76,0,0,0-1.29,1.41" style="fill:none;stroke:#263238;stroke-linecap:round;stroke-linejoin:round"></path><path d="M115.76,299s-1.94,1.43-3.85,3" style="fill:none;stroke:#263238;stroke-linecap:round;stroke-linejoin:round"></path><line x1="86.9" y1="288.16" x2="79.93" y2="284.93" style="fill:#fff;stroke:#263238;stroke-linecap:round;stroke-linejoin:round"></line><path d="M137.53,326.48s32.74,0,39.29.88,7.42,7,7,10.47-18.34,86.65-17.46,87.52,11.13,8.51,15.71,9.6,6.11,3.28,6.33,4.59a17.46,17.46,0,0,1-.44,4.36,85.44,85.44,0,0,1-12.22.88c-6.77,0-20.73-2.19-23.57-2.19s-8.51,1.53-9.39-.65,2.19-12.66,3.5-15.28a36.45,36.45,0,0,0,2.83-10.26c.22-2.62,2.84-35.13,2.62-45.39s.87-14.62.87-14.62l-14,3.71Z" style="fill:#fff;stroke:#263238;stroke-linecap:round;stroke-linejoin:round"></path><path d="M182.06,435c-4.58-1.09-14.84-8.73-15.71-9.6,0,0-2.41-.87-3.28,0s-1.31,4.37-1.31,4.37a75.19,75.19,0,0,1-12.88-2.62l-2.47-.77-.14.33c-1.31,2.62-4.37,13.1-3.5,15.28s6.55.65,9.39.65,16.8,2.19,23.57,2.19A85.44,85.44,0,0,0,188,443.9a17.46,17.46,0,0,0,.44-4.36C188.17,438.23,186.64,436.05,182.06,435Z" style="fill:#16A34A;stroke:#263238;stroke-linecap:round;stroke-linejoin:round"></path><path d="M142.77,441.94c.88,2.18,6.55.65,9.39.65s16.8,2.19,23.57,2.19A85.44,85.44,0,0,0,188,443.9a25.64,25.64,0,0,0,.45-3,123.1,123.1,0,0,1-21.86-.43,188.81,188.81,0,0,1-23.37-3.71C142.68,439.09,142.44,441.11,142.77,441.94Z" style="fill:#fff;stroke:#263238;stroke-linecap:round;stroke-linejoin:round"></path><path d="M169,412c4.83-21,14.45-71.58,14.77-74.13.43-3.49-.44-9.6-7-10.47s-39.29-.88-39.29-.88l1.1,33.62,14-3.71s-1.09,4.36-.87,14.62c.18,8.33-1.52,35.44-2.28,42.22Z" style="fill:#757575;stroke:#263238;stroke-linecap:round;stroke-linejoin:round"></path><path d="M152.59,356.39s4.15-11.35,13.1-15.28" style="fill:none;stroke:#263238;stroke-linecap:round;stroke-linejoin:round"></path><path d="M157,345a13.14,13.14,0,0,1,5.46-3.93" style="fill:none;stroke:#263238;stroke-linecap:round;stroke-linejoin:round"></path><polygon points="148.23 408.76 148.01 417.49 169.84 415.97 171.8 407.45 148.23 408.76" style="fill:#fff;stroke:#263238;stroke-linecap:round;stroke-linejoin:round"></polygon><path d="M154.93,309.19s-5.5.75-7.5,2.75-10,17.25-10,18.75,8,7.5,10.5,7.75,15.25-14.5,17.25-16.25.25-11.5-.5-14.5" style="fill:#16A34A;stroke:#263238;stroke-linecap:round;stroke-linejoin:round"></path><path d="M146.18,422.19s3.25-55.25,3.25-70.25,1.25-22.25-3.25-25-53.25,3-64.25,6-21.75,9.75-21.75,9.75,1,13.75,3.5,17.25,11.5,5,16,5h29.75l12-3.25,7.5,65.25s-1.5,16.5-.25,17.5,19,2,25.25,1.75,17,.25,17.5-1.5-.75-6.25-.75-6.25-11.25-4.5-14.75-6.75a93.25,93.25,0,0,1-9-7.25Z" style="fill:#fff;stroke:#263238;stroke-linecap:round;stroke-linejoin:round"></path><path d="M155.93,431.69a93.25,93.25,0,0,1-9-7.25l-.75-2.25s-1.5-.5-3.25,1.75a20.44,20.44,0,0,0-2.75,6.25l-11.39-1.66c-.34,4.17-1.12,15.1-.11,15.91,1.25,1,19,2,25.25,1.75s17,.25,17.5-1.5-.75-6.25-.75-6.25S159.43,433.94,155.93,431.69Z" style="fill:#16A34A;stroke:#263238;stroke-linecap:round;stroke-linejoin:round"></path><path d="M171.43,444.69a8.69,8.69,0,0,0-.11-3.29c-13.39,3-37.91.3-43.14-.34,0,1.8.17,3.12.5,3.38,1.25,1,19,2,25.25,1.75S170.93,446.44,171.43,444.69Z" style="fill:#fff;stroke:#263238;stroke-linecap:round;stroke-linejoin:round"></path><path d="M121.43,361.69l6.26,56.49c5.37-1,13.22-2.44,19-3.53.93-13.08,2.71-51.62,2.71-62.71,0-15,1.25-22.25-3.25-25s-53.25,3-64.25,6-21.75,9.75-21.75,9.75,1,13.75,3.5,17.25,11.5,5,16,5h29.75Z" style="fill:#757575;stroke:#263238;stroke-linecap:round;stroke-linejoin:round"></path><path d="M132.07,341.53c.81-.79,1.67-1.58,2.61-2.34" style="fill:none;stroke:#263238;stroke-linecap:round;stroke-linejoin:round"></path><path d="M121.68,360.19a37,37,0,0,1,7.44-15.39" style="fill:none;stroke:#263238;stroke-linecap:round;stroke-linejoin:round"></path><path d="M124.93,346.19s-5,7-5,11.75" style="fill:none;stroke:#263238;stroke-linecap:round;stroke-linejoin:round"></path><polygon points="125.18 414.69 126.68 422.69 147.68 418.69 147.68 410.44 125.18 414.69" style="fill:#fff;stroke:#263238;stroke-linecap:round;stroke-linejoin:round"></polygon></g></svg>